<!DOCTYPE svg PUBLIC "-//W3C//DTD SVG 20010904//EN" "http://www.w3.org/TR/2001/REC-SVG-20010904/DTD/svg10.dtd">
<svg version="1.0" xmlns="http://www.w3.org/2000/svg" width="670px" height="1200px" viewBox="0 0 6700 12000" preserveAspectRatio="xMidYMid meet">
<g id="layer101" fill="#6b3f18" stroke="none">
<path d="M2913 11311 c-158 -41 -294 -206 -355 -433 -29 -106 -31 -307 -6 -658 24 -324 45 -864 58 -1460 21 -979 24 -1021 155 -2045 71 -548 103 -869 120 -1192 l5 -113 -70 0 c-109 0 -160 -36 -160 -113 0 -31 7 -46 34 -73 19 -19 42 -34 53 -34 12 -1 7 -5 -13 -14 -52 -23 -74 -54 -74 -104 0 -34 6 -49 28 -71 15 -15 34 -31 42 -34 13 -6 13 -8 0 -14 -8 -3 -27 -19 -42 -34 -53 -52 -29 -142 46 -175 26 -11 27 -13 9 -14 -12 0 -35 -14 -52 -31 -25 -25 -31 -39 -31 -73 0 -47 26 -90 61 -101 19 -6 17 -10 -20 -44 -35 -32 -41 -44 -41 -78 0 -21 7 -48 15 -59 27 -36 19 -41 -92 -47 -277 -16 -882 -135 -1258 -248 -214 -65 -352 -123 -413 -174 -66 -55 -242 -341 -410 -664 l-85 -164 36 -259 37 -259 56 -112 c132 -262 255 -454 355 -556 38 -38 102 -86 163 -122 185 -109 745 -384 1066 -522 108 -46 130 -50 325 -62 44 -2 128 -7 187 -11 l106 -6 6 -34 c16 -84 132 -87 166 -4 11 26 18 30 50 30 l38 0 7 -68 c16 -157 66 -326 121 -414 106 -168 301 -208 452 -93 118 91 182 246 199 485 6 82 8 91 17 68 20 -47 46 -68 85 -68 56 1 99 47 87 95 -5 20 -1 24 22 29 37 8 204 36 312 52 19 3 55 9 80 14 25 5 119 23 210 40 337 64 489 111 640 196 182 101 622 395 757 503 38 31 67 65 85 101 57 111 116 329 162 590 49 282 50 244 -10 362 -149 296 -326 532 -492 658 -164 123 -631 314 -1388 566 -125 42 -176 54 -223 54 l-60 0 24 36 c14 20 25 48 25 61 0 37 -27 81 -61 99 l-31 16 30 18 c86 53 80 156 -12 196 -17 7 -23 13 -14 14 9 0 33 15 52 34 27 25 36 42 36 65 0 45 -25 88 -63 107 -24 13 -28 19 -17 23 84 33 105 118 46 177 -19 19 -42 34 -53 34 -12 1 -8 5 13 14 65 29 91 95 59 155 -21 41 -71 61 -154 61 l-71 0 0 223 c-1 434 -23 957 -60 1422 -95 1179 -72 1971 84 2915 56 338 60 377 60 575 0 163 -3 202 -21 272 -41 154 -111 258 -217 322 -85 51 -301 119 -506 161 -72 14 -267 22 -307 11z m789 -7545 l-17 -49 -125 6 c-69 3 -179 12 -245 18 -167 17 -158 19 288 59 54 4 101 11 105 14 12 13 10 -2 -6 -48z m303 -7 c21 -1 14 -4 -23 -11 -30 -5 -56 -7 -59 -5 -11 12 11 28 31 23 11 -3 35 -6 51 -7z m-2861 -1149 c23 -81 20 -86 -25 -46 -54 50 -83 59 -154 51 l-60 -6 45 29 c68 44 80 63 143 227 10 27 12 19 24 -85 6 -63 19 -140 27 -170z m4158 -468 c-5 -56 9 -73 83 -101 l48 -18 -79 -6 c-43 -4 -151 -9 -239 -12 -149 -6 -273 -18 -320 -31 -11 -4 52 30 140 75 146 75 266 121 366 140 3 0 4 -20 1 -47z m-535 -179 c-4 -3 -10 -3 -14 0 -3 4 0 7 7 7 7 0 10 -3 7 -7z m-2362 -123 c279 -51 262 -45 165 -53 -194 -15 -248 -53 -291 -202 l-18 -60 0 122 -1 122 -42 34 c-24 18 -67 48 -95 66 -29 18 -53 34 -53 36 0 2 37 -6 83 -16 45 -10 159 -32 252 -49z m-148 -352 c-3 -8 -6 -5 -6 6 -1 11 2 17 5 13 3 -3 4 -12 1 -19z"/>
</g>
<g id="layer102" fill="#5a595a" stroke="none">
<path d="M2713 5390 c-65 -39 -73 -112 -19 -166 19 -19 42 -34 53 -34 12 -1 7 -5 -13 -14 -52 -23 -74 -54 -74 -104 0 -34 6 -49 28 -71 15 -15 34 -31 42 -34 13 -6 13 -8 0 -14 -8 -3 -27 -19 -42 -34 -53 -52 -29 -142 46 -175 26 -11 27 -13 9 -14 -12 0 -35 -14 -52 -31 -25 -25 -31 -39 -31 -73 0 -47 26 -90 61 -101 19 -6 17 -10 -20 -44 -35 -32 -41 -44 -41 -78 0 -21 7 -48 15 -59 27 -36 19 -41 -92 -47 -277 -16 -882 -135 -1258 -248 -214 -65 -352 -123 -413 -174 -66 -55 -242 -341 -410 -664 l-85 -164 36 -259 37 -259 56 -112 c132 -262 255 -454 355 -556 38 -38 102 -86 163 -122 185 -109 745 -384 1066 -522 108 -46 130 -50 325 -62 44 -2 128 -7 187 -11 l106 -6 6 -34 c16 -84 132 -87 166 -4 11 26 18 30 50 30 l38 0 7 -68 c16 -157 66 -326 121 -414 106 -168 301 -208 452 -93 118 91 182 246 199 485 6 82 8 91 17 68 20 -47 46 -68 85 -68 56 1 99 47 87 95 -5 20 -1 24 22 29 37 8 214 37 302 50 25 4 65 11 90 16 25 5 119 23 210 40 337 64 489 111 640 196 182 101 622 395 757 503 38 31 67 65 85 101 57 111 116 329 162 590 49 282 50 244 -10 362 -149 296 -326 532 -492 658 -164 123 -631 314 -1388 566 -125 42 -176 54 -223 54 l-60 0 24 36 c14 20 25 48 25 61 0 37 -27 81 -61 99 l-31 16 30 18 c86 53 80 156 -12 196 -17 7 -23 13 -14 14 9 0 33 15 52 34 27 25 36 42 36 65 0 45 -25 88 -63 107 -24 13 -28 19 -17 23 84 33 105 118 46 177 -19 19 -42 34 -52 34 -13 1 -9 5 12 14 92 40 98 158 10 200 -30 14 -102 16 -673 16 -614 0 -639 -1 -670 -20z m989 -1624 l-17 -49 -125 6 c-69 3 -179 12 -245 18 -167 17 -158 19 288 59 54 4 101 11 105 14 12 13 10 -2 -6 -48z m303 -7 c21 -1 14 -4 -23 -11 -30 -5 -56 -7 -59 -5 -11 12 11 28 31 23 11 -3 35 -6 51 -7z m-2861 -1149 c23 -81 20 -86 -25 -46 -54 50 -83 59 -154 51 l-60 -6 45 29 c68 44 80 63 143 227 10 27 12 19 24 -85 6 -63 19 -140 27 -170z m4158 -468 c-5 -56 9 -73 83 -101 l48 -18 -79 -6 c-43 -4 -151 -9 -239 -12 -149 -6 -273 -18 -320 -31 -11 -4 52 30 140 75 146 75 266 121 366 140 3 0 4 -20 1 -47z m-535 -179 c-4 -3 -10 -3 -14 0 -3 4 0 7 7 7 7 0 10 -3 7 -7z m-2362 -123 c279 -51 262 -45 165 -53 -194 -15 -248 -53 -291 -202 l-18 -60 0 122 -1 122 -42 34 c-24 18 -67 48 -95 66 -29 18 -53 34 -53 36 0 2 37 -6 83 -16 45 -10 159 -32 252 -49z m-148 -352 c-3 -8 -6 -5 -6 6 -1 11 2 17 5 13 3 -3 4 -12 1 -19z"/>
</g>
<g id="layer103" fill="#6c6458" stroke="none">
<path d="M2713 5390 c-65 -39 -73 -112 -19 -166 19 -19 42 -34 53 -34 12 -1 7 -5 -13 -14 -52 -23 -74 -54 -74 -104 0 -34 6 -49 28 -71 15 -15 34 -31 42 -34 13 -6 13 -8 0 -14 -8 -3 -27 -19 -42 -34 -53 -52 -29 -142 46 -175 26 -11 27 -13 9 -14 -12 0 -35 -14 -52 -31 -25 -25 -31 -39 -31 -73 0 -47 26 -90 61 -101 19 -6 17 -10 -20 -44 -35 -32 -41 -44 -41 -78 0 -21 7 -48 15 -59 27 -36 19 -41 -92 -47 -277 -16 -882 -135 -1258 -248 -214 -65 -352 -123 -413 -174 -66 -55 -242 -341 -410 -664 l-85 -164 36 -259 37 -259 56 -112 c132 -262 255 -454 355 -556 38 -38 102 -86 163 -122 185 -109 745 -384 1066 -522 108 -46 130 -50 325 -62 44 -2 128 -7 187 -11 l106 -6 6 -34 c16 -84 132 -87 166 -4 11 26 18 30 50 30 l38 0 7 -68 c16 -157 66 -326 121 -414 106 -168 301 -208 452 -93 118 91 182 246 199 485 6 82 8 91 17 68 20 -47 46 -68 85 -68 56 1 99 47 87 95 -5 20 -1 24 22 29 37 8 214 37 302 50 25 4 65 11 90 16 25 5 119 23 210 40 337 64 489 111 640 196 182 101 622 395 757 503 38 31 67 65 85 101 57 111 116 329 162 590 49 282 50 244 -10 362 -149 296 -326 532 -492 658 -164 123 -631 314 -1388 566 -125 42 -176 54 -223 54 l-60 0 24 36 c14 20 25 48 25 61 0 37 -27 81 -61 99 l-31 16 30 18 c86 53 80 156 -12 196 -17 7 -23 13 -14 14 9 0 33 15 52 34 27 25 36 42 36 65 0 45 -25 88 -63 107 -24 13 -28 19 -17 23 84 33 105 118 46 177 -19 19 -42 34 -52 34 -13 1 -9 5 12 14 92 40 98 158 10 200 -30 14 -102 16 -673 16 -614 0 -639 -1 -670 -20z m989 -1624 l-17 -49 -125 6 c-69 3 -179 12 -245 18 -167 17 -158 19 288 59 54 4 101 11 105 14 12 13 10 -2 -6 -48z m303 -7 c21 -1 14 -4 -23 -11 -30 -5 -56 -7 -59 -5 -11 12 11 28 31 23 11 -3 35 -6 51 -7z m-2861 -1149 c23 -81 20 -86 -25 -46 -54 50 -83 59 -154 51 l-60 -6 45 29 c68 44 80 63 143 227 10 27 12 19 24 -85 6 -63 19 -140 27 -170z m2351 -22 c-4 -15 -11 -28 -16 -28 -10 0 -12 44 -2 79 l6 25 9 -24 c5 -13 6 -36 3 -52z m1807 -446 c-5 -56 9 -73 83 -101 l48 -18 -79 -6 c-43 -4 -151 -9 -239 -12 -149 -6 -273 -18 -320 -31 -11 -4 52 30 140 75 146 75 266 121 366 140 3 0 4 -20 1 -47z m-535 -179 c-4 -3 -10 -3 -14 0 -3 4 0 7 7 7 7 0 10 -3 7 -7z m-2362 -123 c279 -51 262 -45 165 -53 -194 -15 -248 -53 -291 -202 l-18 -60 0 122 -1 122 -42 34 c-24 18 -67 48 -95 66 -29 18 -53 34 -53 36 0 2 37 -6 83 -16 45 -10 159 -32 252 -49z m-148 -352 c-3 -8 -6 -5 -6 6 -1 11 2 17 5 13 3 -3 4 -12 1 -19z"/>
</g>
<g id="layer104" fill="#a46126" stroke="none">
<path d="M2913 11311 c-158 -41 -294 -206 -355 -433 -29 -106 -31 -307 -6 -658 24 -324 45 -864 58 -1460 21 -979 24 -1021 155 -2045 70 -546 113 -964 117 -1150 1 -46 3 -62 5 -37 l4 42 495 0 494 0 0 143 c-1 358 -25 912 -60 1342 -95 1179 -72 1971 84 2915 56 338 60 377 60 575 0 163 -3 202 -21 272 -41 154 -111 258 -217 322 -85 51 -301 119 -506 161 -72 14 -267 22 -307 11z"/>
<path d="M2713 5390 c-65 -39 -73 -112 -19 -166 19 -19 42 -34 53 -34 12 -1 7 -5 -13 -14 -52 -23 -74 -54 -74 -104 0 -34 6 -49 28 -71 15 -15 34 -31 42 -34 13 -6 13 -8 0 -14 -8 -3 -27 -19 -42 -34 -53 -52 -29 -142 46 -175 26 -11 27 -13 9 -14 -12 0 -35 -14 -52 -31 -25 -25 -31 -39 -31 -73 0 -47 26 -90 61 -101 19 -6 17 -10 -20 -44 -35 -32 -41 -44 -41 -78 0 -21 7 -48 15 -59 27 -36 19 -41 -92 -47 -277 -16 -882 -135 -1258 -248 -214 -65 -352 -123 -413 -174 -66 -55 -242 -341 -410 -664 l-85 -164 36 -259 37 -259 56 -112 c132 -262 255 -454 355 -556 38 -38 102 -86 163 -122 185 -109 745 -384 1066 -522 108 -46 130 -50 325 -62 44 -2 128 -7 187 -11 l106 -6 6 -34 c16 -84 132 -87 166 -4 11 26 18 30 50 30 l38 0 7 -68 c16 -157 66 -326 121 -414 106 -168 301 -208 452 -93 118 91 182 246 199 485 6 82 8 91 17 68 20 -47 46 -68 85 -68 56 1 99 47 87 95 -5 20 -1 24 22 29 37 8 214 37 302 50 25 4 65 11 90 16 25 5 119 23 210 40 337 64 489 111 640 196 182 101 622 395 757 503 38 31 67 65 85 101 57 111 116 329 162 590 49 282 50 244 -10 362 -149 296 -326 532 -492 658 -164 123 -631 314 -1388 566 -125 42 -176 54 -223 54 l-60 0 24 36 c14 20 25 48 25 61 0 37 -27 81 -61 99 l-31 16 30 18 c86 53 80 156 -12 196 -17 7 -23 13 -14 14 9 0 33 15 52 34 27 25 36 42 36 65 0 45 -25 88 -63 107 -24 13 -28 19 -17 23 84 33 105 118 46 177 -19 19 -42 34 -52 34 -13 1 -9 5 12 14 92 40 98 158 10 200 -30 14 -102 16 -673 16 -614 0 -639 -1 -670 -20z m212 -1140 c3 -5 4 -10 1 -10 -3 0 -8 5 -11 10 -3 6 -4 10 -1 10 3 0 8 -4 11 -10z m-17 -25 c-3 -3 -9 2 -12 12 -6 14 -5 15 5 6 7 -7 10 -15 7 -18z m69 -151 c-3 -3 -12 -4 -19 -1 -8 3 -5 6 6 6 11 1 17 -2 13 -5z m28 -64 c-3 -5 -12 -10 -18 -10 -7 0 -6 4 3 10 19 12 23 12 15 0z m-5 -40 c0 -5 -2 -10 -4 -10 -3 0 -8 5 -11 10 -3 6 -1 10 4 10 6 0 11 -4 11 -10z m23 -42 c-2 -5 -10 -8 -16 -7 -9 0 -9 2 -1 5 7 3 10 15 8 27 -4 21 -4 21 5 2 4 -11 7 -23 4 -27z m14 -55 c-4 -3 -7 0 -7 7 0 7 3 10 7 7 3 -4 3 -10 0 -14z m3 -23 c0 -5 -2 -10 -4 -10 -3 0 -8 5 -11 10 -3 6 -1 10 4 10 6 0 11 -4 11 -10z m662 -84 l-17 -49 -125 6 c-69 3 -179 12 -245 18 -167 17 -158 19 288 59 54 4 101 11 105 14 12 13 10 -2 -6 -48z m-615 7 c-4 -3 -7 0 -7 7 0 7 3 10 7 7 3 -4 3 -10 0 -14z m-17 -3 c0 -5 -4 -10 -10 -10 -5 0 -10 5 -10 10 0 6 5 10 10 10 6 0 10 -4 10 -10z m935 -11 c21 -1 14 -4 -23 -11 -30 -5 -56 -7 -59 -5 -11 12 11 28 31 23 11 -3 35 -6 51 -7z m-2861 -1149 c23 -81 20 -86 -25 -46 -54 50 -83 59 -154 51 l-60 -6 45 29 c68 44 80 63 143 227 10 27 12 19 24 -85 6 -63 19 -140 27 -170z m2352 -25 c-4 -14 -10 -25 -15 -25 -16 0 -20 28 -8 65 l11 38 9 -27 c5 -15 6 -38 3 -51z m1806 -443 c-5 -56 9 -73 83 -101 l48 -18 -79 -6 c-43 -4 -151 -9 -239 -12 -149 -6 -273 -18 -320 -31 -11 -4 52 30 140 75 146 75 266 121 366 140 3 0 4 -20 1 -47z m-535 -179 c-4 -3 -10 -3 -14 0 -3 4 0 7 7 7 7 0 10 -3 7 -7z m-2362 -123 c279 -51 262 -45 165 -53 -194 -15 -248 -53 -291 -202 l-18 -60 0 122 -1 122 -42 34 c-24 18 -67 48 -95 66 -29 18 -53 34 -53 36 0 2 37 -6 83 -16 45 -10 159 -32 252 -49z m-148 -352 c-3 -8 -6 -5 -6 6 -1 11 2 17 5 13 3 -3 4 -12 1 -19z"/>
</g>
<g id="layer105" fill="#6c6c6b" stroke="none">
<path d="M2713 5390 c-65 -39 -73 -112 -19 -166 19 -19 42 -34 53 -34 12 -1 7 -5 -13 -14 -52 -23 -74 -54 -74 -104 0 -34 6 -49 28 -71 15 -15 34 -31 42 -34 13 -6 13 -8 0 -14 -8 -3 -27 -19 -42 -34 -53 -52 -29 -142 46 -175 26 -11 27 -13 9 -14 -12 0 -35 -14 -52 -31 -25 -25 -31 -39 -31 -73 0 -47 26 -90 61 -101 19 -6 17 -10 -20 -44 -35 -32 -41 -44 -41 -78 0 -21 7 -48 15 -59 27 -36 19 -41 -92 -47 -277 -16 -882 -135 -1258 -248 -214 -65 -352 -123 -413 -174 -66 -55 -242 -341 -410 -664 l-85 -164 36 -259 37 -259 56 -112 c132 -262 255 -454 355 -556 38 -38 102 -86 163 -122 185 -109 745 -384 1066 -522 108 -46 130 -50 325 -62 44 -2 128 -7 187 -11 l106 -6 6 -34 c16 -84 132 -87 166 -3 l13 31 131 -7 c200 -10 488 -11 618 -1 l116 8 7 -24 c13 -42 45 -68 84 -68 56 1 99 47 87 95 -5 20 -1 24 22 29 37 8 214 37 302 50 25 4 65 11 90 16 25 5 119 23 210 40 337 64 489 111 640 196 182 101 622 395 757 503 38 31 67 65 85 101 57 111 116 329 162 590 49 282 50 244 -10 362 -149 296 -326 532 -492 658 -164 123 -631 314 -1388 566 -125 42 -176 54 -223 54 l-60 0 24 36 c14 20 25 48 25 61 0 37 -27 81 -61 99 l-31 16 30 18 c86 53 80 156 -12 196 -17 7 -23 13 -14 14 9 0 33 15 52 34 27 25 36 42 36 65 0 45 -25 88 -63 107 -24 13 -28 19 -17 23 84 33 105 118 46 177 -19 19 -42 34 -52 34 -13 1 -9 5 12 14 92 40 98 158 10 200 -30 14 -102 16 -673 16 -614 0 -639 -1 -670 -20z m212 -1140 c3 -5 4 -10 1 -10 -3 0 -8 5 -11 10 -3 6 -4 10 -1 10 3 0 8 -4 11 -10z m-17 -25 c-3 -3 -9 2 -12 12 -6 14 -5 15 5 6 7 -7 10 -15 7 -18z m69 -151 c-3 -3 -12 -4 -19 -1 -8 3 -5 6 6 6 11 1 17 -2 13 -5z m28 -64 c-3 -5 -12 -10 -18 -10 -7 0 -6 4 3 10 19 12 23 12 15 0z m-5 -40 c0 -5 -2 -10 -4 -10 -3 0 -8 5 -11 10 -3 6 -1 10 4 10 6 0 11 -4 11 -10z m23 -42 c-2 -5 -10 -8 -16 -7 -9 0 -9 2 -1 5 7 3 10 15 8 27 -4 21 -4 21 5 2 4 -11 7 -23 4 -27z m14 -55 c-4 -3 -7 0 -7 7 0 7 3 10 7 7 3 -4 3 -10 0 -14z m3 -23 c0 -5 -2 -10 -4 -10 -3 0 -8 5 -11 10 -3 6 -1 10 4 10 6 0 11 -4 11 -10z m662 -84 l-17 -49 -125 6 c-69 3 -179 12 -245 18 -167 17 -158 19 288 59 54 4 101 11 105 14 12 13 10 -2 -6 -48z m-615 7 c-4 -3 -7 0 -7 7 0 7 3 10 7 7 3 -4 3 -10 0 -14z m-17 -3 c0 -5 -4 -10 -10 -10 -5 0 -10 5 -10 10 0 6 5 10 10 10 6 0 10 -4 10 -10z m935 -11 c21 -1 14 -4 -23 -11 -30 -5 -56 -7 -59 -5 -11 12 11 28 31 23 11 -3 35 -6 51 -7z m-2861 -1149 c23 -81 20 -86 -25 -46 -54 50 -83 59 -154 51 l-60 -6 45 29 c68 44 80 63 143 227 10 27 12 19 24 -85 6 -63 19 -140 27 -170z m2352 -25 c-4 -14 -10 -25 -15 -25 -16 0 -20 28 -8 65 l11 38 9 -27 c5 -15 6 -38 3 -51z m1806 -443 c-5 -56 9 -73 83 -101 l48 -18 -79 -6 c-43 -4 -151 -9 -239 -12 -149 -6 -273 -18 -320 -31 -11 -4 52 30 140 75 146 75 266 121 366 140 3 0 4 -20 1 -47z m-535 -179 c-4 -3 -10 -3 -14 0 -3 4 0 7 7 7 7 0 10 -3 7 -7z m-2362 -123 c279 -51 262 -45 165 -53 -194 -15 -248 -53 -291 -202 l-18 -60 0 122 -1 122 -42 34 c-24 18 -67 48 -95 66 -29 18 -53 34 -53 36 0 2 37 -6 83 -16 45 -10 159 -32 252 -49z m-148 -352 c-3 -8 -6 -5 -6 6 -1 11 2 17 5 13 3 -3 4 -12 1 -19z"/>
</g>
<g id="layer106" fill="#8a7650" stroke="none">
<path d="M3398 11253 c7 -3 16 -2 19 1 4 3 -2 6 -13 5 -11 0 -14 -3 -6 -6z"/>
<path d="M2532 10730 c0 -19 2 -27 5 -17 2 9 2 25 0 35 -3 9 -5 1 -5 -18z"/>
<path d="M3963 10645 c0 -22 2 -30 4 -17 2 12 2 30 0 40 -3 9 -5 -1 -4 -23z"/>
<path d="M2533 10510 c0 -25 2 -35 4 -22 2 12 2 32 0 45 -2 12 -4 2 -4 -23z"/>
<path d="M3963 10460 c0 -25 2 -35 4 -22 2 12 2 32 0 45 -2 12 -4 2 -4 -23z"/>
<path d="M3952 10330 c0 -19 2 -27 5 -17 2 9 2 25 0 35 -3 9 -5 1 -5 -18z"/>
<path d="M2573 9915 c0 -33 2 -45 4 -27 2 18 2 45 0 60 -2 15 -4 0 -4 -33z"/>
<path d="M3862 9740 c0 -14 2 -19 5 -12 2 6 2 18 0 25 -3 6 -5 1 -5 -13z"/>
<path d="M2593 9430 c0 -36 2 -50 4 -32 2 17 2 47 0 65 -2 17 -4 3 -4 -33z"/>
<path d="M3773 8845 c0 -27 2 -38 4 -22 2 15 2 37 0 50 -2 12 -4 0 -4 -28z"/>
<path d="M2643 7805 c0 -22 2 -30 4 -17 2 12 2 30 0 40 -3 9 -5 -1 -4 -23z"/>
<path d="M2742 6895 c0 -16 2 -22 5 -12 2 9 2 23 0 30 -3 6 -5 -1 -5 -18z"/>
<path d="M3843 6665 c0 -27 2 -38 4 -22 2 15 2 37 0 50 -2 12 -4 0 -4 -28z"/>
<path d="M2852 5970 c0 -19 2 -27 5 -17 2 9 2 25 0 35 -3 9 -5 1 -5 -18z"/>
<path d="M2713 5390 c-65 -39 -73 -112 -19 -166 19 -19 42 -34 53 -34 12 -1 7 -5 -13 -14 -52 -23 -74 -54 -74 -104 0 -34 6 -49 28 -71 15 -15 34 -31 42 -34 13 -6 13 -8 0 -14 -8 -3 -27 -19 -42 -34 -53 -52 -29 -142 46 -175 26 -11 27 -13 9 -14 -12 0 -35 -14 -52 -31 -25 -25 -31 -39 -31 -73 0 -47 26 -90 61 -101 19 -6 17 -10 -20 -44 -35 -32 -41 -44 -41 -78 0 -21 7 -48 15 -59 27 -36 19 -41 -92 -47 -277 -16 -882 -135 -1258 -248 -214 -65 -352 -123 -413 -174 -66 -55 -242 -341 -410 -664 l-85 -164 36 -259 37 -259 56 -112 c132 -262 255 -454 355 -556 38 -38 102 -86 163 -122 185 -109 745 -384 1066 -522 108 -46 130 -50 325 -62 44 -2 128 -7 187 -11 l106 -6 6 -34 c16 -84 132 -87 166 -3 l13 31 131 -7 c200 -10 488 -11 618 -1 l116 8 7 -24 c13 -42 45 -68 84 -68 56 1 99 47 87 95 -5 20 -1 24 22 29 37 8 214 37 302 50 25 4 65 11 90 16 25 5 119 23 210 40 337 64 489 111 640 196 182 101 622 395 757 503 38 31 67 65 85 101 57 111 116 329 162 590 49 282 50 244 -10 362 -149 296 -326 532 -492 658 -142 107 -496 257 -1092 465 -311 109 -460 155 -499 155 -39 0 -41 -1 -55 -47 -20 -65 -166 -466 -172 -472 -2 -3 -9 0 -16 7 -8 8 -3 33 21 99 18 48 44 120 58 158 14 39 38 105 54 147 16 43 29 84 29 92 0 8 11 32 25 52 14 20 25 48 25 61 0 37 -27 81 -61 99 l-31 16 30 18 c86 53 80 156 -12 196 -17 7 -23 13 -14 14 9 0 33 15 52 34 27 25 36 42 36 65 0 45 -25 88 -63 107 -24 13 -28 19 -17 23 84 33 105 118 46 177 -19 19 -42 34 -52 34 -13 1 -9 5 12 14 92 40 98 158 10 200 -30 14 -102 16 -673 16 -614 0 -639 -1 -670 -20z m235 -1200 c149 -418 153 -430 128 -430 -19 0 -26 9 -39 48 -8 26 -49 144 -91 262 -42 118 -76 216 -76 218 0 2 10 2 22 0 18 -2 28 -21 56 -98z m754 -424 l-17 -49 -125 6 c-69 3 -179 12 -245 18 -167 17 -158 19 288 59 54 4 101 11 105 14 12 13 10 -2 -6 -48z m303 -7 c21 -1 14 -4 -23 -11 -30 -5 -56 -7 -59 -5 -11 12 11 28 31 23 11 -3 35 -6 51 -7z m-2861 -1149 c23 -81 20 -86 -25 -46 -54 50 -83 59 -154 51 l-60 -6 45 29 c68 44 80 63 143 227 10 27 12 19 24 -85 6 -63 19 -140 27 -170z m2355 0 c0 -14 -4 -34 -8 -45 -8 -19 -8 -19 -20 3 -15 28 4 105 20 81 5 -8 8 -25 8 -39z m1803 -468 c-5 -56 9 -73 83 -101 l48 -18 -79 -6 c-43 -4 -151 -9 -239 -12 -149 -6 -273 -18 -320 -31 -11 -4 52 30 140 75 146 75 266 121 366 140 3 0 4 -20 1 -47z m-535 -179 c-4 -3 -10 -3 -14 0 -3 4 0 7 7 7 7 0 10 -3 7 -7z m-2362 -123 c279 -51 262 -45 165 -53 -194 -15 -248 -53 -291 -202 l-18 -60 0 122 -1 122 -42 34 c-24 18 -67 48 -95 66 -29 18 -53 34 -53 36 0 2 37 -6 83 -16 45 -10 159 -32 252 -49z m-148 -352 c-3 -8 -6 -5 -6 6 -1 11 2 17 5 13 3 -3 4 -12 1 -19z"/>
<path d="M3012 1080 c0 -14 2 -19 5 -12 2 6 2 18 0 25 -3 6 -5 1 -5 -13z"/>
<path d="M3772 950 c0 -14 2 -19 5 -12 2 6 2 18 0 25 -3 6 -5 1 -5 -13z"/>
<path d="M3750 840 c0 -7 3 -10 7 -7 3 4 3 10 0 14 -4 3 -7 0 -7 -7z"/>
<path d="M3695 690 c-9 -16 -13 -30 -11 -30 3 0 12 14 21 30 9 17 13 30 11 30 -3 0 -12 -13 -21 -30z"/>
</g>
<g id="layer107" fill="#867d71" stroke="none">
<path d="M2713 5390 c-65 -39 -73 -112 -19 -166 19 -19 42 -34 53 -34 12 -1 7 -5 -13 -14 -52 -23 -74 -54 -74 -104 0 -34 6 -49 28 -71 15 -15 34 -31 42 -34 13 -6 13 -8 0 -14 -8 -3 -27 -19 -42 -34 -53 -52 -29 -142 46 -175 26 -11 27 -13 9 -14 -12 0 -35 -14 -52 -31 -25 -25 -31 -39 -31 -73 0 -47 26 -90 61 -101 19 -6 17 -10 -20 -44 -35 -32 -41 -44 -41 -78 0 -21 7 -48 15 -59 27 -36 19 -41 -92 -47 -277 -16 -882 -135 -1258 -248 -214 -65 -352 -123 -413 -174 -66 -55 -242 -341 -410 -664 l-85 -164 36 -259 37 -259 56 -112 c132 -262 255 -454 355 -556 38 -38 102 -86 163 -122 185 -109 745 -384 1066 -522 108 -46 130 -50 325 -62 44 -2 128 -7 187 -11 l106 -6 6 -34 c16 -82 132 -87 165 -7 l11 28 435 0 c427 0 435 0 441 -20 12 -39 46 -65 83 -65 56 1 99 47 87 95 -5 20 -1 24 22 29 37 8 214 37 302 50 25 4 65 11 90 16 25 5 119 23 210 40 337 64 489 111 640 196 182 101 622 395 757 503 38 31 67 65 85 101 57 111 116 329 162 590 49 282 50 244 -10 362 -149 296 -326 532 -492 658 -142 107 -496 257 -1092 465 -311 109 -460 155 -499 155 -39 0 -41 -1 -55 -47 -20 -65 -166 -466 -172 -472 -2 -3 -9 0 -16 7 -8 8 -3 33 21 99 18 48 44 120 58 158 14 39 38 105 54 147 16 43 29 84 29 92 0 8 11 32 25 52 14 20 25 48 25 61 0 37 -27 81 -61 99 l-31 16 30 18 c86 53 80 156 -12 196 -17 7 -23 13 -14 14 9 0 33 15 52 34 27 25 36 42 36 65 0 45 -25 88 -63 107 -24 13 -28 19 -17 23 84 33 105 118 46 177 -19 19 -42 34 -52 34 -13 1 -9 5 12 14 92 40 98 158 10 200 -30 14 -102 16 -673 16 -614 0 -639 -1 -670 -20z m235 -1200 c149 -418 153 -430 128 -430 -19 0 -26 9 -39 48 -8 26 -49 144 -91 262 -42 118 -76 216 -76 218 0 2 10 2 22 0 18 -2 28 -21 56 -98z m754 -424 l-17 -49 -125 6 c-69 3 -179 12 -245 18 -167 17 -158 19 288 59 54 4 101 11 105 14 12 13 10 -2 -6 -48z m303 -7 c21 -1 14 -4 -23 -11 -30 -5 -56 -7 -59 -5 -11 12 11 28 31 23 11 -3 35 -6 51 -7z m-2861 -1149 c23 -81 20 -86 -25 -46 -54 50 -83 59 -154 51 l-60 -6 45 29 c68 44 80 63 143 227 10 27 12 19 24 -85 6 -63 19 -140 27 -170z m2356 6 c0 -26 -101 -306 -111 -306 -22 0 -11 57 39 195 36 101 58 151 63 143 5 -7 9 -22 9 -32z m1802 -474 c-5 -56 9 -73 83 -101 l48 -18 -79 -6 c-43 -4 -151 -9 -239 -12 -149 -6 -273 -18 -320 -31 -11 -4 52 30 140 75 146 75 266 121 366 140 3 0 4 -20 1 -47z m-535 -179 c-4 -3 -10 -3 -14 0 -3 4 0 7 7 7 7 0 10 -3 7 -7z m-2362 -123 c279 -51 262 -45 165 -53 -194 -15 -248 -53 -291 -202 l-18 -60 0 122 -1 122 -42 34 c-24 18 -67 48 -95 66 -29 18 -53 34 -53 36 0 2 37 -6 83 -16 45 -10 159 -32 252 -49z m-148 -352 c-3 -8 -6 -5 -6 6 -1 11 2 17 5 13 3 -3 4 -12 1 -19z"/>
</g>
<g id="layer108" fill="#948871" stroke="none">
<path d="M2713 5390 c-65 -39 -73 -112 -19 -166 19 -19 42 -34 53 -34 12 -1 7 -5 -13 -14 -52 -23 -74 -54 -74 -104 0 -34 6 -49 28 -71 15 -15 34 -31 42 -34 13 -6 13 -8 0 -14 -8 -3 -27 -19 -42 -34 -53 -52 -29 -142 46 -175 26 -11 27 -13 9 -14 -12 0 -35 -14 -52 -31 -25 -25 -31 -39 -31 -73 0 -47 26 -90 61 -101 19 -6 17 -10 -20 -44 -35 -32 -41 -44 -41 -78 0 -21 7 -48 15 -59 27 -36 19 -41 -92 -47 -277 -16 -882 -135 -1258 -248 -214 -65 -352 -123 -413 -174 -66 -55 -242 -341 -410 -664 l-85 -164 36 -259 37 -259 56 -112 c132 -262 255 -454 355 -556 38 -38 102 -86 163 -122 185 -109 745 -384 1066 -522 108 -46 130 -50 325 -62 44 -2 128 -7 187 -11 l106 -6 6 -34 c16 -82 132 -87 165 -7 l11 28 435 0 c427 0 435 0 441 -20 12 -39 46 -65 83 -65 56 1 99 47 87 95 -5 20 -1 24 22 29 37 8 214 37 302 50 25 4 65 11 90 16 25 5 119 23 210 40 337 64 489 111 640 196 182 101 622 395 757 503 38 31 67 65 85 101 57 111 116 329 162 590 49 282 50 244 -10 362 -149 296 -326 532 -492 658 -142 107 -496 257 -1092 465 -308 108 -460 155 -496 155 l-39 0 -88 -248 c-49 -136 -92 -254 -97 -261 -4 -8 -15 -11 -23 -8 -12 4 0 46 64 221 43 119 84 235 91 258 7 24 23 58 35 77 13 19 23 45 23 58 0 37 -27 81 -61 99 l-31 16 30 18 c86 53 80 156 -12 196 -17 7 -23 13 -14 14 9 0 33 15 52 34 27 25 36 42 36 65 0 45 -25 88 -63 107 -24 13 -28 19 -17 23 84 33 105 118 46 177 -19 19 -42 34 -52 34 -13 1 -9 5 12 14 92 40 98 158 10 200 -30 14 -102 16 -673 16 -614 0 -639 -1 -670 -20z m256 -1252 c96 -277 119 -343 126 -360 6 -14 2 -18 -17 -18 -22 0 -30 17 -113 253 -48 138 -90 258 -93 265 -2 7 5 12 20 12 21 0 28 -13 77 -152z m733 -372 l-17 -49 -125 6 c-69 3 -179 12 -245 18 -167 17 -158 19 288 59 54 4 101 11 105 14 12 13 10 -2 -6 -48z m303 -7 c21 -1 14 -4 -23 -11 -30 -5 -56 -7 -59 -5 -11 12 11 28 31 23 11 -3 35 -6 51 -7z m-877 -174 c-3 -3 -9 2 -12 12 -6 14 -5 15 5 6 7 -7 10 -15 7 -18z m679 -127 c-3 -7 -5 -2 -5 12 0 14 2 19 5 13 2 -7 2 -19 0 -25z m-560 -145 c-4 -3 -7 0 -7 7 0 7 3 10 7 7 3 -4 3 -10 0 -14z m13 -67 c0 -3 -5 -8 -12 -12 -7 -4 -8 -3 -4 4 7 12 16 16 16 8z m347 -343 c-4 -3 -10 -3 -14 0 -3 4 0 7 7 7 7 0 10 -3 7 -7z m-2463 -293 c23 -81 20 -86 -25 -46 -54 50 -83 59 -154 51 l-60 -6 45 29 c68 44 80 63 143 227 10 27 12 19 24 -85 6 -63 19 -140 27 -170z m2357 28 c3 -46 2 -54 -19 -98 -11 -25 -33 -83 -50 -130 -48 -135 -45 -129 -54 -95 -6 24 4 62 49 188 54 151 71 183 74 135z m26 -145 c-4 -3 -7 0 -7 7 0 7 3 10 7 7 3 -4 3 -10 0 -14z m27 -39 c3 -8 2 -12 -4 -9 -6 3 -10 10 -10 16 0 14 7 11 14 -7z m71 -204 c3 -5 4 -10 1 -10 -3 0 -8 5 -11 10 -3 6 -4 10 -1 10 3 0 8 -4 11 -10z m1677 -108 c-5 -56 9 -73 83 -101 l48 -18 -79 -6 c-43 -4 -151 -9 -239 -12 -149 -6 -273 -18 -320 -31 -11 -4 52 30 140 75 146 75 266 121 366 140 3 0 4 -20 1 -47z m-535 -179 c-4 -3 -10 -3 -14 0 -3 4 0 7 7 7 7 0 10 -3 7 -7z m-2362 -123 c279 -51 262 -45 165 -53 -194 -15 -248 -53 -291 -202 l-18 -60 0 122 -1 122 -42 34 c-24 18 -67 48 -95 66 -29 18 -53 34 -53 36 0 2 37 -6 83 -16 45 -10 159 -32 252 -49z m-148 -352 c-3 -8 -6 -5 -6 6 -1 11 2 17 5 13 3 -3 4 -12 1 -19z"/>
</g>
<g id="layer109" fill="#b89867" stroke="none">
<path d="M2978 11313 c23 -2 61 -2 85 0 23 2 4 4 -43 4 -47 0 -66 -2 -42 -4z"/>
<path d="M3158 11303 c6 -2 18 -2 25 0 6 3 1 5 -13 5 -14 0 -19 -2 -12 -5z"/>
<path d="M3223 11293 c4 -3 10 -3 14 0 3 4 0 7 -7 7 -7 0 -10 -3 -7 -7z"/>
<path d="M2843 11283 c4 -3 10 -3 14 0 3 4 0 7 -7 7 -7 0 -10 -3 -7 -7z"/>
<path d="M3278 11283 c7 -3 16 -2 19 1 4 3 -2 6 -13 5 -11 0 -14 -3 -6 -6z"/>
<path d="M3358 11263 c7 -3 16 -2 19 1 4 3 -2 6 -13 5 -11 0 -14 -3 -6 -6z"/>
<path d="M2784 11248 c-4 -7 -3 -8 4 -4 12 7 16 16 8 16 -3 0 -8 -5 -12 -12z"/>
<path d="M3433 11243 c4 -3 10 -3 14 0 3 4 0 7 -7 7 -7 0 -10 -3 -7 -7z"/>
<path d="M3463 11233 c4 -3 10 -3 14 0 3 4 0 7 -7 7 -7 0 -10 -3 -7 -7z"/>
<path d="M3593 11193 c4 -3 10 -3 14 0 3 4 0 7 -7 7 -7 0 -10 -3 -7 -7z"/>
<path d="M3643 11173 c4 -3 10 -3 14 0 3 4 0 7 -7 7 -7 0 -10 -3 -7 -7z"/>
<path d="M2679 11143 c-13 -16 -12 -17 4 -4 9 7 17 15 17 17 0 8 -8 3 -21 -13z"/>
<path d="M3715 11140 c3 -5 8 -10 11 -10 3 0 2 5 -1 10 -3 6 -8 10 -11 10 -3 0 -2 -4 1 -10z"/>
<path d="M3745 11120 c3 -5 8 -10 11 -10 3 0 2 5 -1 10 -3 6 -8 10 -11 10 -3 0 -2 -4 1 -10z"/>
<path d="M2654 11108 c-4 -7 -3 -8 4 -4 12 7 16 16 8 16 -3 0 -8 -5 -12 -12z"/>
<path d="M2625 11059 c-4 -6 -5 -12 -2 -15 2 -3 7 2 10 11 7 17 1 20 -8 4z"/>
<path d="M2570 10930 c0 -7 3 -10 7 -7 3 4 3 10 0 14 -4 3 -7 0 -7 -7z"/>
<path d="M3910 10900 c0 -7 3 -10 7 -7 3 4 3 10 0 14 -4 3 -7 0 -7 -7z"/>
<path d="M2551 10854 c0 -11 3 -14 6 -6 3 7 2 16 -1 19 -3 4 -6 -2 -5 -13z"/>
<path d="M3930 10840 c0 -7 3 -10 7 -7 3 4 3 10 0 14 -4 3 -7 0 -7 -7z"/>
<path d="M2532 10735 c0 -16 2 -22 5 -12 2 9 2 23 0 30 -3 6 -5 -1 -5 -18z"/>
<path d="M3952 10740 c0 -14 2 -19 5 -12 2 6 2 18 0 25 -3 6 -5 1 -5 -13z"/>
<path d="M3962 10655 c0 -16 2 -22 5 -12 2 9 2 23 0 30 -3 6 -5 -1 -5 -18z"/>
<path d="M2533 10505 c0 -22 2 -30 4 -17 2 12 2 30 0 40 -3 9 -5 -1 -4 -23z"/>
<path d="M3962 10450 c0 -19 2 -27 5 -17 2 9 2 25 0 35 -3 9 -5 1 -5 -18z"/>
<path d="M2542 10390 c0 -14 2 -19 5 -12 2 6 2 18 0 25 -3 6 -5 1 -5 -13z"/>
<path d="M3952 10325 c0 -16 2 -22 5 -12 2 9 2 23 0 30 -3 6 -5 -1 -5 -18z"/>
<path d="M2553 10250 c0 -25 2 -35 4 -22 2 12 2 32 0 45 -2 12 -4 2 -4 -23z"/>
<path d="M3941 10244 c0 -11 3 -14 6 -6 3 7 2 16 -1 19 -3 4 -6 -2 -5 -13z"/>
<path d="M3932 10170 c0 -14 2 -19 5 -12 2 6 2 18 0 25 -3 6 -5 1 -5 -13z"/>
<path d="M2563 10090 c0 -25 2 -35 4 -22 2 12 2 32 0 45 -2 12 -4 2 -4 -23z"/>
<path d="M3921 10104 c0 -11 3 -14 6 -6 3 7 2 16 -1 19 -3 4 -6 -2 -5 -13z"/>
<path d="M3911 10044 c0 -11 3 -14 6 -6 3 7 2 16 -1 19 -3 4 -6 -2 -5 -13z"/>
<path d="M3901 9984 c0 -11 3 -14 6 -6 3 7 2 16 -1 19 -3 4 -6 -2 -5 -13z"/>
<path d="M2573 9910 c0 -30 2 -43 4 -27 2 15 2 39 0 55 -2 15 -4 2 -4 -28z"/>
<path d="M3890 9930 c0 -7 3 -10 7 -7 3 4 3 10 0 14 -4 3 -7 0 -7 -7z"/>
<path d="M3881 9864 c0 -11 3 -14 6 -6 3 7 2 16 -1 19 -3 4 -6 -2 -5 -13z"/>
<path d="M2583 9685 c0 -38 2 -53 4 -32 2 20 2 52 0 70 -2 17 -4 1 -4 -38z"/>
<path d="M3861 9734 c0 -11 3 -14 6 -6 3 7 2 16 -1 19 -3 4 -6 -2 -5 -13z"/>
<path d="M3851 9664 c0 -11 3 -14 6 -6 3 7 2 16 -1 19 -3 4 -6 -2 -5 -13z"/>
<path d="M3842 9590 c0 -14 2 -19 5 -12 2 6 2 18 0 25 -3 6 -5 1 -5 -13z"/>
<path d="M3832 9505 c0 -16 2 -22 5 -12 2 9 2 23 0 30 -3 6 -5 -1 -5 -18z"/>
<path d="M2593 9420 c0 -30 2 -43 4 -27 2 15 2 39 0 55 -2 15 -4 2 -4 -28z"/>
<path d="M3821 9424 c0 -11 3 -14 6 -6 3 7 2 16 -1 19 -3 4 -6 -2 -5 -13z"/>
<path d="M3812 9330 c0 -19 2 -27 5 -17 2 9 2 25 0 35 -3 9 -5 1 -5 -18z"/>
<path d="M3801 9234 c0 -11 3 -14 6 -6 3 7 2 16 -1 19 -3 4 -6 -2 -5 -13z"/>
<path d="M2604 9065 c0 -66 1 -92 3 -57 2 34 2 88 0 120 -2 31 -3 3 -3 -63z"/>
<path d="M3793 9125 c0 -22 2 -30 4 -17 2 12 2 30 0 40 -3 9 -5 -1 -4 -23z"/>
<path d="M3783 8995 c0 -22 2 -30 4 -17 2 12 2 30 0 40 -3 9 -5 -1 -4 -23z"/>
<path d="M3773 8840 c0 -25 2 -35 4 -22 2 12 2 32 0 45 -2 12 -4 2 -4 -23z"/>
<path d="M2613 8645 c0 -44 2 -61 4 -37 2 23 2 59 0 80 -2 20 -4 1 -4 -43z"/>
<path d="M3764 8605 c0 -49 1 -71 3 -48 2 23 2 64 0 90 -2 26 -3 8 -3 -42z"/>
<path d="M2624 8165 c0 -49 1 -71 3 -48 2 23 2 64 0 90 -2 26 -3 8 -3 -42z"/>
<path d="M3764 7905 c0 -49 1 -71 3 -48 2 23 2 64 0 90 -2 26 -3 8 -3 -42z"/>
<path d="M2633 7940 c0 -25 2 -35 4 -22 2 12 2 32 0 45 -2 12 -4 2 -4 -23z"/>
<path d="M2642 7800 c0 -19 2 -27 5 -17 2 9 2 25 0 35 -3 9 -5 1 -5 -18z"/>
<path d="M3773 7670 c0 -30 2 -43 4 -27 2 15 2 39 0 55 -2 15 -4 2 -4 -28z"/>
<path d="M2653 7675 c0 -22 2 -30 4 -17 2 12 2 30 0 40 -3 9 -5 -1 -4 -23z"/>
<path d="M2662 7570 c0 -14 2 -19 5 -12 2 6 2 18 0 25 -3 6 -5 1 -5 -13z"/>
<path d="M3783 7510 c0 -25 2 -35 4 -22 2 12 2 32 0 45 -2 12 -4 2 -4 -23z"/>
<path d="M2672 7470 c0 -19 2 -27 5 -17 2 9 2 25 0 35 -3 9 -5 1 -5 -18z"/>
<path d="M2681 7384 c0 -11 3 -14 6 -6 3 7 2 16 -1 19 -3 4 -6 -2 -5 -13z"/>
<path d="M3793 7360 c0 -25 2 -35 4 -22 2 12 2 32 0 45 -2 12 -4 2 -4 -23z"/>
<path d="M2692 7295 c0 -16 2 -22 5 -12 2 9 2 23 0 30 -3 6 -5 -1 -5 -18z"/>
<path d="M3802 7220 c0 -14 2 -19 5 -12 2 6 2 18 0 25 -3 6 -5 1 -5 -13z"/>
<path d="M2702 7210 c0 -14 2 -19 5 -12 2 6 2 18 0 25 -3 6 -5 1 -5 -13z"/>
<path d="M2712 7130 c0 -14 2 -19 5 -12 2 6 2 18 0 25 -3 6 -5 1 -5 -13z"/>
<path d="M3813 7095 c0 -22 2 -30 4 -17 2 12 2 30 0 40 -3 9 -5 -1 -4 -23z"/>
<path d="M2722 7045 c0 -16 2 -22 5 -12 2 9 2 23 0 30 -3 6 -5 -1 -5 -18z"/>
<path d="M2730 6970 c0 -7 3 -10 7 -7 3 4 3 10 0 14 -4 3 -7 0 -7 -7z"/>
<path d="M3822 6960 c0 -14 2 -19 5 -12 2 6 2 18 0 25 -3 6 -5 1 -5 -13z"/>
<path d="M2742 6890 c0 -14 2 -19 5 -12 2 6 2 18 0 25 -3 6 -5 1 -5 -13z"/>
<path d="M3833 6825 c0 -27 2 -38 4 -22 2 15 2 37 0 50 -2 12 -4 0 -4 -28z"/>
<path d="M2751 6814 c0 -11 3 -14 6 -6 3 7 2 16 -1 19 -3 4 -6 -2 -5 -13z"/>
<path d="M2762 6740 c0 -14 2 -19 5 -12 2 6 2 18 0 25 -3 6 -5 1 -5 -13z"/>
<path d="M3843 6670 c0 -25 2 -35 4 -22 2 12 2 32 0 45 -2 12 -4 2 -4 -23z"/>
<path d="M2772 6660 c0 -14 2 -19 5 -12 2 6 2 18 0 25 -3 6 -5 1 -5 -13z"/>
<path d="M2782 6580 c0 -14 2 -19 5 -12 2 6 2 18 0 25 -3 6 -5 1 -5 -13z"/>
<path d="M3853 6505 c0 -27 2 -38 4 -22 2 15 2 37 0 50 -2 12 -4 0 -4 -28z"/>
<path d="M2792 6500 c0 -14 2 -19 5 -12 2 6 2 18 0 25 -3 6 -5 1 -5 -13z"/>
<path d="M2801 6424 c0 -11 3 -14 6 -6 3 7 2 16 -1 19 -3 4 -6 -2 -5 -13z"/>
<path d="M2812 6335 c0 -16 2 -22 5 -12 2 9 2 23 0 30 -3 6 -5 -1 -5 -18z"/>
<path d="M3863 6270 c0 -47 2 -66 4 -42 2 23 2 61 0 85 -2 23 -4 4 -4 -43z"/>
<path d="M2821 6254 c0 -11 3 -14 6 -6 3 7 2 16 -1 19 -3 4 -6 -2 -5 -13z"/>
<path d="M2832 6165 c0 -16 2 -22 5 -12 2 9 2 23 0 30 -3 6 -5 -1 -5 -18z"/>
<path d="M2842 6065 c0 -16 2 -22 5 -12 2 9 2 23 0 30 -3 6 -5 -1 -5 -18z"/>
<path d="M2852 5965 c0 -16 2 -22 5 -12 2 9 2 23 0 30 -3 6 -5 -1 -5 -18z"/>
<path d="M3874 5875 c0 -55 1 -76 3 -47 2 29 2 74 0 100 -2 26 -3 2 -3 -53z"/>
<path d="M2863 5845 c0 -22 2 -30 4 -17 2 12 2 30 0 40 -3 9 -5 -1 -4 -23z"/>
<path d="M2872 5720 c0 -14 2 -19 5 -12 2 6 2 18 0 25 -3 6 -5 1 -5 -13z"/>
<path d="M2883 5550 c0 -36 2 -50 4 -32 2 17 2 47 0 65 -2 17 -4 3 -4 -33z"/>
<path d="M2713 5390 c-65 -39 -73 -112 -19 -166 19 -19 42 -34 53 -34 12 -1 7 -5 -13 -14 -52 -23 -74 -54 -74 -104 0 -34 6 -49 28 -71 15 -15 34 -31 42 -34 13 -6 13 -8 0 -14 -8 -3 -27 -19 -42 -34 -53 -52 -29 -142 46 -175 26 -11 27 -13 9 -14 -12 0 -35 -14 -52 -31 -25 -25 -31 -39 -31 -73 0 -47 26 -90 61 -101 19 -6 17 -10 -20 -44 -35 -32 -41 -44 -41 -78 0 -21 7 -48 15 -59 27 -36 19 -41 -92 -47 -277 -16 -882 -135 -1258 -248 -214 -65 -352 -123 -413 -174 -66 -55 -242 -341 -410 -664 l-85 -164 36 -259 37 -259 56 -112 c132 -262 255 -454 355 -556 38 -38 102 -86 163 -122 185 -109 745 -384 1066 -522 108 -46 130 -50 325 -62 44 -2 128 -7 187 -11 l106 -6 6 -34 c16 -82 132 -87 165 -7 l11 28 435 0 c427 0 435 0 441 -20 12 -39 46 -65 83 -65 56 1 99 47 87 95 -5 20 -1 24 22 29 37 8 214 37 302 50 25 4 65 11 90 16 25 5 119 23 210 40 337 64 489 111 640 196 182 101 622 395 757 503 38 31 67 65 85 101 57 111 116 329 162 590 49 282 50 244 -10 362 -149 296 -326 532 -492 658 -142 107 -496 257 -1092 465 -308 108 -460 155 -496 155 l-39 0 -88 -248 c-49 -136 -92 -254 -97 -261 -4 -8 -15 -11 -24 -8 -14 6 -15 10 -1 44 29 76 165 458 165 465 0 4 11 24 25 44 14 20 25 48 25 61 0 37 -27 81 -61 99 l-31 16 30 18 c86 53 80 156 -12 196 -17 7 -23 13 -14 14 9 0 33 15 52 34 27 25 36 42 36 65 0 45 -25 88 -63 107 -24 13 -28 19 -17 23 84 33 105 118 46 177 -19 19 -42 34 -52 34 -13 1 -9 5 12 14 92 40 98 158 10 200 -30 14 -102 16 -673 16 -614 0 -639 -1 -670 -20z m256 -1252 c95 -275 119 -343 126 -359 4 -11 0 -18 -14 -22 -12 -3 -23 -1 -26 3 -7 11 -185 516 -185 524 0 3 10 6 23 6 20 0 28 -16 76 -152z m733 -372 l-17 -49 -125 6 c-69 3 -179 12 -245 18 -167 17 -158 19 288 59 54 4 101 11 105 14 12 13 10 -2 -6 -48z m303 -7 c21 -1 14 -4 -23 -11 -30 -5 -56 -7 -59 -5 -11 12 11 28 31 23 11 -3 35 -6 51 -7z m-115 -33 c0 -2 -7 -9 -15 -16 -13 -11 -14 -10 -9 4 5 14 24 23 24 12z m0 -36 c0 -5 -8 -10 -17 -10 -15 0 -16 2 -3 10 19 12 20 12 20 0z m-777 -22 c7 -27 -7 -30 -19 -4 -8 17 -7 23 2 23 7 0 15 -9 17 -19z m27 -38 c0 -5 -2 -10 -4 -10 -3 0 -8 5 -11 10 -3 6 -1 10 4 10 6 0 11 -4 11 -10z m0 -51 c0 -11 -4 -19 -10 -19 -5 0 -10 6 -10 14 0 8 -3 23 -7 33 -6 16 -5 16 10 4 9 -7 17 -22 17 -32z m717 25 c-3 -3 -12 -4 -19 -1 -8 3 -5 6 6 6 11 1 17 -2 13 -5z m3 -20 c0 -8 -19 -13 -24 -6 -3 5 1 9 9 9 8 0 15 -2 15 -3z m-30 -35 c0 -5 -4 -9 -10 -9 -5 0 -10 7 -10 16 0 8 5 12 10 9 6 -3 10 -10 10 -16z m-2 -31 c-3 -7 -12 -14 -22 -14 -15 -2 -15 -2 0 3 14 4 14 7 3 14 -11 7 -10 9 4 9 11 0 17 -6 15 -12z m-21 -60 c-3 -7 -5 -2 -5 12 0 14 2 19 5 13 2 -7 2 -19 0 -25z m-611 -24 c-3 -7 0 -14 7 -17 6 -2 4 -6 -6 -10 -9 -3 -16 -3 -16 1 1 4 0 9 -1 12 -9 24 -6 38 7 33 8 -3 12 -11 9 -19z m594 5 c0 -6 -4 -7 -10 -4 -5 3 -10 11 -10 16 0 6 5 7 10 4 6 -3 10 -11 10 -16z m-30 -49 c-6 -11 -12 -20 -14 -20 -2 0 -2 9 1 20 3 11 9 20 15 20 5 0 4 -9 -2 -20z m-549 -27 c13 -16 12 -17 -3 -4 -17 13 -22 21 -14 21 2 0 10 -8 17 -17z m554 -10 c-2 -10 -4 -22 -4 -27 -1 -6 -6 -5 -13 2 -8 8 -8 15 2 27 16 19 19 19 15 -2z m-523 -45 c-9 -9 -15 -9 -24 1 -9 10 -9 12 -1 7 6 -3 15 -1 18 5 4 5 10 8 13 4 3 -3 0 -11 -6 -17z m483 -18 c3 -5 4 -10 1 -10 -3 0 -8 5 -11 10 -3 6 -4 10 -1 10 3 0 8 -4 11 -10z m-469 -52 c-9 -12 -16 -19 -16 -15 0 11 24 47 28 42 2 -2 -3 -14 -12 -27z m479 22 c3 -5 1 -10 -4 -10 -6 0 -11 5 -11 10 0 6 2 10 4 10 3 0 8 -4 11 -10z m-8 -27 c-4 -3 -10 -3 -14 0 -3 4 0 7 7 7 7 0 10 -3 7 -7z m-460 -28 c0 -8 -4 -15 -9 -15 -10 0 -11 14 -1 23 9 10 10 9 10 -8z m420 -22 c-4 -3 -7 0 -7 7 0 7 3 10 7 7 3 -4 3 -10 0 -14z m-7 -17 c0 -3 -5 -8 -12 -12 -7 -4 -8 -3 -4 4 7 12 16 16 16 8z m20 -10 c0 -3 -5 -8 -12 -12 -7 -4 -8 -3 -4 4 7 12 16 16 16 8z m-400 -12 c0 -8 -19 -13 -24 -6 -3 5 1 9 9 9 8 0 15 -2 15 -3z m367 -61 c-11 -10 -26 8 -20 23 5 15 7 14 15 -1 6 -9 7 -19 5 -22z m-351 2 c-3 -18 0 -25 12 -26 13 0 14 -2 3 -6 -21 -8 -43 25 -28 43 17 19 18 17 13 -11z m311 -52 c-4 -3 -7 0 -7 7 0 7 3 10 7 7 3 -4 3 -10 0 -14z m-274 -44 c-3 -11 0 -19 6 -19 7 0 9 -4 6 -10 -4 -6 -11 -5 -20 3 -7 6 -11 14 -9 16 2 2 0 9 -6 15 -6 8 -3 12 9 13 14 1 17 -4 14 -18z m283 -1 c4 -7 4 -10 -1 -6 -4 4 -15 2 -24 -5 -14 -11 -14 -10 -2 6 16 20 18 21 27 5z m-41 -95 c-11 -8 -20 -22 -21 -31 -3 -46 -5 -52 -19 -52 -13 0 -14 4 -3 23 7 12 11 26 10 31 -2 5 4 16 13 26 8 9 12 20 8 25 -5 4 -2 5 6 0 10 -6 12 -2 7 16 l-6 24 12 -24 c10 -20 9 -25 -7 -38z m-208 20 c-4 -3 -7 0 -7 7 0 7 3 10 7 7 3 -4 3 -10 0 -14z m-12 -13 c3 -5 4 -10 1 -10 -3 0 -8 5 -11 10 -3 6 -4 10 -1 10 3 0 8 -4 11 -10z m-2231 -290 c23 -81 20 -86 -25 -46 -54 50 -83 59 -154 51 l-60 -6 45 29 c68 44 80 63 143 227 10 27 12 19 24 -85 6 -63 19 -140 27 -170z m2383 148 c-3 -8 -6 -5 -6 6 -1 11 2 17 5 13 3 -3 4 -12 1 -19z m16 -35 c-4 -10 -9 -11 -19 -2 -19 15 -18 18 5 16 11 -1 17 -6 14 -14z m-16 -40 c-4 -3 -10 -3 -14 0 -3 4 0 7 7 7 7 0 10 -3 7 -7z m-14 -26 c-4 -6 -8 -25 -8 -42 -1 -16 -11 -50 -22 -75 -11 -25 -38 -94 -59 -153 -37 -102 -39 -107 -47 -76 -11 44 98 354 126 356 11 1 15 -3 10 -10z m-6 -114 c-4 -3 -7 0 -7 7 0 7 3 10 7 7 3 -4 3 -10 0 -14z m19 -49 c-3 -8 1 -17 8 -20 22 -8 26 -30 6 -30 -10 0 -16 6 -13 13 3 7 1 13 -5 13 -5 0 -9 11 -8 24 0 13 5 22 9 19 5 -3 6 -11 3 -19z m21 -71 c-4 -3 -10 -3 -14 0 -3 4 0 7 7 7 7 0 10 -3 7 -7z m0 -20 c-4 -3 -10 -3 -14 0 -3 4 0 7 7 7 7 0 10 -3 7 -7z m16 -34 c-8 -8 -13 -7 -18 2 -5 8 -4 10 3 5 7 -4 12 -2 12 5 0 7 3 9 7 6 4 -4 2 -12 -4 -18z m14 -26 c-4 -3 -10 -3 -14 0 -3 4 0 7 7 7 7 0 10 -3 7 -7z m0 -50 c-4 -3 -7 0 -7 7 0 7 3 10 7 7 3 -4 3 -10 0 -14z m-210 -8 c0 -8 -4 -12 -9 -9 -5 3 -6 10 -3 15 9 13 12 11 12 -6z m230 -12 c-4 -3 -7 0 -7 7 0 7 3 10 7 7 3 -4 3 -10 0 -14z m-256 -34 c-5 -13 -10 -19 -10 -12 -1 15 10 45 15 40 3 -2 0 -15 -5 -28z m283 12 c4 -5 -3 -7 -14 -4 -23 6 -26 13 -6 13 8 0 17 -4 20 -9z m-20 -27 c3 -8 2 -12 -4 -9 -6 3 -10 10 -10 16 0 14 7 11 14 -7z m13 -41 c-4 -3 -7 0 -7 7 0 7 3 10 7 7 3 -4 3 -10 0 -14z m30 0 c-4 -3 -10 -3 -14 0 -3 4 0 7 7 7 7 0 10 -3 7 -7z m1655 -41 c-5 -56 9 -73 83 -101 l48 -18 -79 -6 c-43 -4 -151 -9 -239 -12 -149 -6 -273 -18 -320 -31 -11 -4 52 30 140 75 146 75 266 121 366 140 3 0 4 -20 1 -47z m-1665 21 c-4 -3 -10 -3 -14 0 -3 4 0 7 7 7 7 0 10 -3 7 -7z m-322 -22 c3 -5 2 -12 -3 -15 -5 -3 -9 1 -9 9 0 17 3 19 12 6z m340 -31 c-3 -5 -1 -10 5 -10 6 0 8 -4 5 -10 -10 -16 -23 -11 -20 8 5 23 4 22 11 22 3 0 2 -4 -1 -10z m-355 -4 c0 -3 -5 -8 -12 -12 -7 -4 -8 -3 -4 4 7 12 16 16 16 8z m-4 -41 c-1 -8 -6 -18 -11 -22 -4 -4 -5 -2 -1 5 4 6 2 12 -3 12 -6 0 -11 5 -11 10 0 6 6 10 14 10 8 0 13 -7 12 -15z m371 -22 c-4 -3 -7 0 -7 7 0 7 3 10 7 7 3 -4 3 -10 0 -14z m-399 -33 c1 -32 -12 -48 -24 -29 -5 8 -3 9 6 4 10 -6 12 -4 7 8 -5 14 0 47 8 47 1 0 2 -13 3 -30z m432 -6 c0 -2 -9 0 -20 6 -11 6 -20 13 -20 16 0 2 9 0 20 -6 11 -6 20 -13 20 -16z m1067 -41 c-4 -3 -10 -3 -14 0 -3 4 0 7 7 7 7 0 10 -3 7 -7z m-1523 -29 c3 -8 2 -12 -4 -9 -6 3 -10 10 -10 16 0 14 7 11 14 -7z m480 4 c-3 -4 -1 -8 4 -8 14 0 10 -29 -6 -35 -10 -4 -12 0 -8 11 4 9 2 22 -4 29 -7 8 -5 12 5 12 8 0 12 -4 9 -9z m-480 -49 c-3 -5 -11 -9 -17 -9 -7 0 -6 4 3 10 14 9 7 14 -13 11 -5 -1 -6 3 -2 9 5 8 11 8 21 -1 7 -6 11 -15 8 -20z m-839 -49 c279 -51 262 -45 165 -53 -194 -15 -248 -53 -291 -202 l-18 -60 0 122 -1 122 -42 34 c-24 18 -67 48 -95 66 -29 18 -53 34 -53 36 0 2 37 -6 83 -16 45 -10 159 -32 252 -49z m822 13 c-4 -3 -7 0 -7 7 0 7 3 10 7 7 3 -4 3 -10 0 -14z m529 5 c4 -7 3 -8 -4 -4 -7 4 -12 2 -12 -5 0 -7 -3 -10 -6 -6 -6 5 3 27 11 27 2 0 7 -5 11 -12z m9 -28 c3 -5 1 -10 -4 -10 -6 0 -11 5 -11 10 0 6 2 10 4 10 3 0 8 -4 11 -10z m-572 -15 c-3 -9 -8 -14 -10 -11 -3 3 -2 9 2 15 9 16 15 13 8 -4z m-936 -327 c-3 -8 -6 -5 -6 6 -1 11 2 17 5 13 3 -3 4 -12 1 -19z"/>
<path d="M3011 1074 c0 -11 3 -14 6 -6 3 7 2 16 -1 19 -3 4 -6 -2 -5 -13z"/>
<path d="M3782 1030 c0 -19 2 -27 5 -17 2 9 2 25 0 35 -3 9 -5 1 -5 -18z"/>
<path d="M3022 1000 c0 -14 2 -19 5 -12 2 6 2 18 0 25 -3 6 -5 1 -5 -13z"/>
<path d="M3771 944 c0 -11 3 -14 6 -6 3 7 2 16 -1 19 -3 4 -6 -2 -5 -13z"/>
<path d="M3041 894 c0 -11 3 -14 6 -6 3 7 2 16 -1 19 -3 4 -6 -2 -5 -13z"/>
<path d="M3761 884 c0 -11 3 -14 6 -6 3 7 2 16 -1 19 -3 4 -6 -2 -5 -13z"/>
<path d="M3060 820 c0 -7 3 -10 7 -7 3 4 3 10 0 14 -4 3 -7 0 -7 -7z"/>
<path d="M3110 691 c0 -6 4 -13 10 -16 6 -3 7 1 4 9 -7 18 -14 21 -14 7z"/>
<path d="M3690 680 c-6 -11 -8 -20 -6 -20 3 0 10 9 16 20 6 11 8 20 6 20 -3 0 -10 -9 -16 -20z"/>
<path d="M3659 633 c-13 -16 -12 -17 4 -4 16 13 21 21 13 21 -2 0 -10 -8 -17 -17z"/>
<path d="M3574 548 c-4 -7 -3 -8 4 -4 7 4 12 9 12 12 0 8 -9 4 -16 -8z"/>
<path d="M3235 540 c3 -5 8 -10 11 -10 3 0 2 5 -1 10 -3 6 -8 10 -11 10 -3 0 -2 -4 1 -10z"/>
<path d="M3540 530 c-9 -6 -10 -10 -3 -10 6 0 15 5 18 10 8 12 4 12 -15 0z"/>
<path d="M3303 503 c4 -3 10 -3 14 0 3 4 0 7 -7 7 -7 0 -10 -3 -7 -7z"/>
<path d="M3453 493 c4 -3 10 -3 14 0 3 4 0 7 -7 7 -7 0 -10 -3 -7 -7z"/>
</g>
<g id="layer110" fill="#989898" stroke="none">
<path d="M2660 4399 c0 -19 7 -44 15 -55 27 -36 19 -41 -92 -47 -277 -16 -882 -135 -1258 -248 -214 -65 -352 -123 -413 -174 -66 -55 -242 -341 -410 -664 l-85 -164 36 -259 37 -259 56 -112 c132 -262 255 -454 355 -556 38 -38 102 -86 163 -122 185 -109 745 -384 1066 -522 108 -46 130 -50 325 -62 44 -2 128 -7 187 -11 l106 -6 6 -34 c16 -82 132 -87 165 -7 l12 29 402 -1 c221 0 414 3 430 8 24 6 29 4 39 -20 21 -50 49 -73 87 -73 56 1 99 47 87 95 -5 20 -1 24 22 29 37 8 214 37 302 50 25 4 65 11 90 16 25 5 119 23 210 40 337 64 489 111 640 196 182 101 622 395 757 503 38 31 67 65 85 101 57 111 116 329 162 590 49 282 50 244 -10 362 -149 296 -326 532 -492 658 -142 107 -496 257 -1092 465 -308 108 -460 155 -496 155 l-39 0 -88 -248 c-49 -136 -92 -254 -97 -261 -4 -8 -15 -11 -24 -8 -17 7 -13 20 89 297 32 85 62 170 67 188 5 18 20 49 34 69 13 20 24 49 24 64 l0 29 -730 2 -730 3 0 -36z m309 -261 c95 -275 119 -343 126 -359 4 -11 0 -18 -15 -22 -26 -7 -27 -3 -112 238 -33 94 -68 194 -79 224 -24 68 -24 71 4 71 20 0 28 -16 76 -152z m733 -372 l-17 -49 -125 6 c-69 3 -179 12 -245 18 -167 17 -158 19 288 59 54 4 101 11 105 14 12 13 10 -2 -6 -48z m303 -7 c21 -1 14 -4 -23 -11 -30 -5 -56 -7 -59 -5 -11 12 11 28 31 23 11 -3 35 -6 51 -7z m-115 -33 c0 -2 -7 -9 -15 -16 -13 -11 -14 -10 -9 4 5 14 24 23 24 12z m0 -36 c0 -5 -8 -10 -17 -10 -15 0 -16 2 -3 10 19 12 20 12 20 0z m-777 -22 c7 -27 -7 -30 -19 -4 -8 17 -7 23 2 23 7 0 15 -9 17 -19z m27 -38 c0 -5 -2 -10 -4 -10 -3 0 -8 5 -11 10 -3 6 -1 10 4 10 6 0 11 -4 11 -10z m0 -51 c0 -11 -4 -19 -10 -19 -5 0 -10 6 -10 14 0 8 -3 23 -7 33 -6 16 -5 16 10 4 9 -7 17 -22 17 -32z m717 25 c-3 -3 -12 -4 -19 -1 -8 3 -5 6 6 6 11 1 17 -2 13 -5z m3 -20 c0 -8 -19 -13 -24 -6 -3 5 1 9 9 9 8 0 15 -2 15 -3z m-30 -35 c0 -5 -4 -9 -10 -9 -5 0 -10 7 -10 16 0 8 5 12 10 9 6 -3 10 -10 10 -16z m-2 -31 c-3 -7 -12 -14 -22 -14 -15 -2 -15 -2 0 3 14 4 14 7 3 14 -11 7 -10 9 4 9 11 0 17 -6 15 -12z m-21 -60 c-3 -7 -5 -2 -5 12 0 14 2 19 5 13 2 -7 2 -19 0 -25z m-611 -24 c-3 -7 0 -14 7 -17 6 -2 4 -6 -6 -10 -9 -3 -16 -3 -16 1 1 4 0 9 -1 12 -9 24 -6 38 7 33 8 -3 12 -11 9 -19z m594 5 c0 -6 -4 -7 -10 -4 -5 3 -10 11 -10 16 0 6 5 7 10 4 6 -3 10 -11 10 -16z m-30 -49 c-6 -11 -12 -20 -14 -20 -2 0 -2 9 1 20 3 11 9 20 15 20 5 0 4 -9 -2 -20z m-549 -27 c13 -16 12 -17 -3 -4 -17 13 -22 21 -14 21 2 0 10 -8 17 -17z m554 -10 c-2 -10 -4 -22 -4 -27 -1 -6 -6 -5 -13 2 -8 8 -8 15 2 27 16 19 19 19 15 -2z m-523 -45 c-9 -9 -15 -9 -24 1 -9 10 -9 12 -1 7 6 -3 15 -1 18 5 4 5 10 8 13 4 3 -3 0 -11 -6 -17z m483 -18 c3 -5 4 -10 1 -10 -3 0 -8 5 -11 10 -3 6 -4 10 -1 10 3 0 8 -4 11 -10z m-469 -52 c-9 -12 -16 -19 -16 -15 0 11 24 47 28 42 2 -2 -3 -14 -12 -27z m479 22 c3 -5 1 -10 -4 -10 -6 0 -11 5 -11 10 0 6 2 10 4 10 3 0 8 -4 11 -10z m-8 -27 c-4 -3 -10 -3 -14 0 -3 4 0 7 7 7 7 0 10 -3 7 -7z m-460 -28 c0 -8 -4 -15 -9 -15 -10 0 -11 14 -1 23 9 10 10 9 10 -8z m420 -22 c-4 -3 -7 0 -7 7 0 7 3 10 7 7 3 -4 3 -10 0 -14z m-7 -17 c0 -3 -5 -8 -12 -12 -7 -4 -8 -3 -4 4 7 12 16 16 16 8z m20 -10 c0 -3 -5 -8 -12 -12 -7 -4 -8 -3 -4 4 7 12 16 16 16 8z m-400 -12 c0 -8 -19 -13 -24 -6 -3 5 1 9 9 9 8 0 15 -2 15 -3z m367 -61 c-11 -10 -26 8 -20 23 5 15 7 14 15 -1 6 -9 7 -19 5 -22z m-351 2 c-3 -18 0 -25 12 -26 13 0 14 -2 3 -6 -21 -8 -43 25 -28 43 17 19 18 17 13 -11z m311 -52 c-4 -3 -7 0 -7 7 0 7 3 10 7 7 3 -4 3 -10 0 -14z m-274 -44 c-3 -11 0 -19 6 -19 7 0 9 -4 6 -10 -4 -6 -11 -5 -20 3 -7 6 -11 14 -9 16 2 2 0 9 -6 15 -6 8 -3 12 9 13 14 1 17 -4 14 -18z m283 -1 c4 -7 4 -10 -1 -6 -4 4 -15 2 -24 -5 -14 -11 -14 -10 -2 6 16 20 18 21 27 5z m-41 -95 c-11 -8 -20 -22 -21 -31 -3 -46 -5 -52 -19 -52 -13 0 -14 4 -3 23 7 12 11 26 10 31 -2 5 4 16 13 26 8 9 12 20 8 25 -5 4 -2 5 6 0 10 -6 12 -2 7 16 l-6 24 12 -24 c10 -20 9 -25 -7 -38z m-208 20 c-4 -3 -7 0 -7 7 0 7 3 10 7 7 3 -4 3 -10 0 -14z m-12 -13 c3 -5 4 -10 1 -10 -3 0 -8 5 -11 10 -3 6 -4 10 -1 10 3 0 8 -4 11 -10z m-2231 -290 c23 -81 20 -86 -25 -46 -54 50 -83 59 -154 51 l-60 -6 45 29 c68 44 80 63 143 227 10 27 12 19 24 -85 6 -63 19 -140 27 -170z m2383 148 c-3 -8 -6 -5 -6 6 -1 11 2 17 5 13 3 -3 4 -12 1 -19z m16 -35 c-4 -10 -9 -11 -19 -2 -19 15 -18 18 5 16 11 -1 17 -6 14 -14z m-16 -40 c-4 -3 -10 -3 -14 0 -3 4 0 7 7 7 7 0 10 -3 7 -7z m-16 -32 c-6 -9 -9 -26 -7 -36 2 -11 -12 -55 -29 -100 -17 -44 -45 -116 -60 -160 l-29 -80 -9 37 c-7 31 -1 57 48 195 46 126 61 159 76 160 15 1 17 -2 10 -16z m-4 -108 c-4 -3 -7 0 -7 7 0 7 3 10 7 7 3 -4 3 -10 0 -14z m19 -49 c-3 -8 1 -17 8 -20 22 -8 26 -30 6 -30 -10 0 -16 6 -13 13 3 7 1 13 -5 13 -5 0 -9 11 -8 24 0 13 5 22 9 19 5 -3 6 -11 3 -19z m21 -71 c-4 -3 -10 -3 -14 0 -3 4 0 7 7 7 7 0 10 -3 7 -7z m0 -20 c-4 -3 -10 -3 -14 0 -3 4 0 7 7 7 7 0 10 -3 7 -7z m16 -34 c-8 -8 -13 -7 -18 2 -5 8 -4 10 3 5 7 -4 12 -2 12 5 0 7 3 9 7 6 4 -4 2 -12 -4 -18z m14 -26 c-4 -3 -10 -3 -14 0 -3 4 0 7 7 7 7 0 10 -3 7 -7z m0 -50 c-4 -3 -7 0 -7 7 0 7 3 10 7 7 3 -4 3 -10 0 -14z m-210 -8 c0 -8 -4 -12 -9 -9 -5 3 -6 10 -3 15 9 13 12 11 12 -6z m230 -12 c-4 -3 -7 0 -7 7 0 7 3 10 7 7 3 -4 3 -10 0 -14z m-256 -34 c-5 -13 -10 -19 -10 -12 -1 15 10 45 15 40 3 -2 0 -15 -5 -28z m283 12 c4 -5 -3 -7 -14 -4 -23 6 -26 13 -6 13 8 0 17 -4 20 -9z m-20 -27 c3 -8 2 -12 -4 -9 -6 3 -10 10 -10 16 0 14 7 11 14 -7z m13 -41 c-4 -3 -7 0 -7 7 0 7 3 10 7 7 3 -4 3 -10 0 -14z m30 0 c-4 -3 -10 -3 -14 0 -3 4 0 7 7 7 7 0 10 -3 7 -7z m1655 -41 c-5 -56 9 -73 83 -101 l48 -18 -79 -6 c-43 -4 -151 -9 -239 -12 -149 -6 -273 -18 -320 -31 -11 -4 52 30 140 75 146 75 266 121 366 140 3 0 4 -20 1 -47z m-1665 21 c-4 -3 -10 -3 -14 0 -3 4 0 7 7 7 7 0 10 -3 7 -7z m-322 -22 c3 -5 2 -12 -3 -15 -5 -3 -9 1 -9 9 0 17 3 19 12 6z m340 -31 c-3 -5 -1 -10 5 -10 6 0 8 -4 5 -10 -10 -16 -23 -11 -20 8 5 23 4 22 11 22 3 0 2 -4 -1 -10z m-355 -4 c0 -3 -5 -8 -12 -12 -7 -4 -8 -3 -4 4 7 12 16 16 16 8z m-4 -41 c-1 -8 -6 -18 -11 -22 -4 -4 -5 -2 -1 5 4 6 2 12 -3 12 -6 0 -11 5 -11 10 0 6 6 10 14 10 8 0 13 -7 12 -15z m371 -22 c-4 -3 -7 0 -7 7 0 7 3 10 7 7 3 -4 3 -10 0 -14z m-399 -33 c1 -32 -12 -48 -24 -29 -5 8 -3 9 6 4 10 -6 12 -4 7 8 -5 14 0 47 8 47 1 0 2 -13 3 -30z m432 -6 c0 -2 -9 0 -20 6 -11 6 -20 13 -20 16 0 2 9 0 20 -6 11 -6 20 -13 20 -16z m1067 -41 c-4 -3 -10 -3 -14 0 -3 4 0 7 7 7 7 0 10 -3 7 -7z m-1523 -29 c3 -8 2 -12 -4 -9 -6 3 -10 10 -10 16 0 14 7 11 14 -7z m480 4 c-3 -4 -1 -8 4 -8 14 0 10 -29 -6 -35 -10 -4 -12 0 -8 11 4 9 2 22 -4 29 -7 8 -5 12 5 12 8 0 12 -4 9 -9z m-480 -49 c-3 -5 -11 -9 -17 -9 -7 0 -6 4 3 10 14 9 7 14 -13 11 -5 -1 -6 3 -2 9 5 8 11 8 21 -1 7 -6 11 -15 8 -20z m-839 -49 c279 -51 262 -45 165 -53 -194 -15 -248 -53 -291 -202 l-18 -60 0 122 -1 122 -42 34 c-24 18 -67 48 -95 66 -29 18 -53 34 -53 36 0 2 37 -6 83 -16 45 -10 159 -32 252 -49z m822 13 c-4 -3 -7 0 -7 7 0 7 3 10 7 7 3 -4 3 -10 0 -14z m529 5 c4 -7 3 -8 -4 -4 -7 4 -12 2 -12 -5 0 -7 -3 -10 -6 -6 -6 5 3 27 11 27 2 0 7 -5 11 -12z m9 -28 c3 -5 1 -10 -4 -10 -6 0 -11 5 -11 10 0 6 2 10 4 10 3 0 8 -4 11 -10z m-572 -15 c-3 -9 -8 -14 -10 -11 -3 3 -2 9 2 15 9 16 15 13 8 -4z m-936 -327 c-3 -8 -6 -5 -6 6 -1 11 2 17 5 13 3 -3 4 -12 1 -19z"/>
</g>
<g id="layer111" fill="#d3b37a" stroke="none">
<path d="M2948 11313 c7 -3 16 -2 19 1 4 3 -2 6 -13 5 -11 0 -14 -3 -6 -6z"/>
<path d="M3068 11313 c6 -2 18 -2 25 0 6 3 1 5 -13 5 -14 0 -19 -2 -12 -5z"/>
<path d="M2893 11303 c4 -3 10 -3 14 0 3 4 0 7 -7 7 -7 0 -10 -3 -7 -7z"/>
<path d="M3168 11303 c7 -3 16 -2 19 1 4 3 -2 6 -13 5 -11 0 -14 -3 -6 -6z"/>
<path d="M3363 11263 c4 -3 10 -3 14 0 3 4 0 7 -7 7 -7 0 -10 -3 -7 -7z"/>
<path d="M3533 11213 c4 -3 10 -3 14 0 3 4 0 7 -7 7 -7 0 -10 -3 -7 -7z"/>
<path d="M2674 11138 c-4 -7 -3 -8 4 -4 12 7 16 16 8 16 -3 0 -8 -5 -12 -12z"/>
<path d="M3800 11075 c19 -19 36 -35 39 -35 3 0 -10 16 -29 35 -19 19 -36 35 -39 35 -3 0 10 -16 29 -35z"/>
<path d="M3855 11010 c3 -5 8 -10 11 -10 3 0 2 5 -1 10 -3 6 -8 10 -11 10 -3 0 -2 -4 1 -10z"/>
<path d="M2580 10960 c0 -7 3 -10 7 -7 3 4 3 10 0 14 -4 3 -7 0 -7 -7z"/>
<path d="M2550 10860 c0 -7 3 -10 7 -7 3 4 3 10 0 14 -4 3 -7 0 -7 -7z"/>
<path d="M2540 10810 c0 -7 3 -10 7 -7 3 4 3 10 0 14 -4 3 -7 0 -7 -7z"/>
<path d="M2531 10744 c0 -11 3 -14 6 -6 3 7 2 16 -1 19 -3 4 -6 -2 -5 -13z"/>
<path d="M3951 10744 c0 -11 3 -14 6 -6 3 7 2 16 -1 19 -3 4 -6 -2 -5 -13z"/>
<path d="M2532 10500 c0 -19 2 -27 5 -17 2 9 2 25 0 35 -3 9 -5 1 -5 -18z"/>
<path d="M3962 10440 c0 -14 2 -19 5 -12 2 6 2 18 0 25 -3 6 -5 1 -5 -13z"/>
<path d="M2541 10384 c0 -11 3 -14 6 -6 3 7 2 16 -1 19 -3 4 -6 -2 -5 -13z"/>
<path d="M3952 10320 c0 -14 2 -19 5 -12 2 6 2 18 0 25 -3 6 -5 1 -5 -13z"/>
<path d="M2552 10240 c0 -19 2 -27 5 -17 2 9 2 25 0 35 -3 9 -5 1 -5 -18z"/>
<path d="M3940 10240 c0 -7 3 -10 7 -7 3 4 3 10 0 14 -4 3 -7 0 -7 -7z"/>
<path d="M3931 10164 c0 -11 3 -14 6 -6 3 7 2 16 -1 19 -3 4 -6 -2 -5 -13z"/>
<path d="M2562 10080 c0 -19 2 -27 5 -17 2 9 2 25 0 35 -3 9 -5 1 -5 -18z"/>
<path d="M3910 10040 c0 -7 3 -10 7 -7 3 4 3 10 0 14 -4 3 -7 0 -7 -7z"/>
<path d="M2572 9890 c0 -19 2 -27 5 -17 2 9 2 25 0 35 -3 9 -5 1 -5 -18z"/>
<path d="M3880 9860 c0 -7 3 -10 7 -7 3 4 3 10 0 14 -4 3 -7 0 -7 -7z"/>
<path d="M3870 9800 c0 -7 3 -10 7 -7 3 4 3 10 0 14 -4 3 -7 0 -7 -7z"/>
<path d="M3860 9730 c0 -7 3 -10 7 -7 3 4 3 10 0 14 -4 3 -7 0 -7 -7z"/>
<path d="M2583 9670 c0 -30 2 -43 4 -27 2 15 2 39 0 55 -2 15 -4 2 -4 -28z"/>
<path d="M3832 9500 c0 -14 2 -19 5 -12 2 6 2 18 0 25 -3 6 -5 1 -5 -13z"/>
<path d="M2592 9400 c0 -19 2 -27 5 -17 2 9 2 25 0 35 -3 9 -5 1 -5 -18z"/>
<path d="M3820 9420 c0 -7 3 -10 7 -7 3 4 3 10 0 14 -4 3 -7 0 -7 -7z"/>
<path d="M3812 9325 c0 -16 2 -22 5 -12 2 9 2 23 0 30 -3 6 -5 -1 -5 -18z"/>
<path d="M3800 9230 c0 -7 3 -10 7 -7 3 4 3 10 0 14 -4 3 -7 0 -7 -7z"/>
<path d="M2604 9045 c0 -55 1 -76 3 -47 2 29 2 74 0 100 -2 26 -3 2 -3 -53z"/>
<path d="M3792 9115 c0 -16 2 -22 5 -12 2 9 2 23 0 30 -3 6 -5 -1 -5 -18z"/>
<path d="M3782 8985 c0 -16 2 -22 5 -12 2 9 2 23 0 30 -3 6 -5 -1 -5 -18z"/>
<path d="M3772 8825 c0 -16 2 -22 5 -12 2 9 2 23 0 30 -3 6 -5 -1 -5 -18z"/>
<path d="M2613 8620 c0 -30 2 -43 4 -27 2 15 2 39 0 55 -2 15 -4 2 -4 -28z"/>
<path d="M3763 8585 c0 -38 2 -53 4 -32 2 20 2 52 0 70 -2 17 -4 1 -4 -38z"/>
<path d="M2623 8130 c0 -30 2 -43 4 -27 2 15 2 39 0 55 -2 15 -4 2 -4 -28z"/>
<path d="M3763 7930 c0 -36 2 -50 4 -32 2 17 2 47 0 65 -2 17 -4 3 -4 -33z"/>
<path d="M2632 7930 c0 -19 2 -27 5 -17 2 9 2 25 0 35 -3 9 -5 1 -5 -18z"/>
<path d="M2642 7790 c0 -14 2 -19 5 -12 2 6 2 18 0 25 -3 6 -5 1 -5 -13z"/>
<path d="M3772 7690 c0 -19 2 -27 5 -17 2 9 2 25 0 35 -3 9 -5 1 -5 -18z"/>
<path d="M2652 7665 c0 -16 2 -22 5 -12 2 9 2 23 0 30 -3 6 -5 -1 -5 -18z"/>
<path d="M2661 7564 c0 -11 3 -14 6 -6 3 7 2 16 -1 19 -3 4 -6 -2 -5 -13z"/>
<path d="M3782 7520 c0 -19 2 -27 5 -17 2 9 2 25 0 35 -3 9 -5 1 -5 -18z"/>
<path d="M2672 7465 c0 -16 2 -22 5 -12 2 9 2 23 0 30 -3 6 -5 -1 -5 -18z"/>
<path d="M3792 7370 c0 -19 2 -27 5 -17 2 9 2 25 0 35 -3 9 -5 1 -5 -18z"/>
<path d="M2680 7380 c0 -7 3 -10 7 -7 3 4 3 10 0 14 -4 3 -7 0 -7 -7z"/>
<path d="M2691 7284 c0 -11 3 -14 6 -6 3 7 2 16 -1 19 -3 4 -6 -2 -5 -13z"/>
<path d="M3801 7224 c0 -11 3 -14 6 -6 3 7 2 16 -1 19 -3 4 -6 -2 -5 -13z"/>
<path d="M2701 7204 c0 -11 3 -14 6 -6 3 7 2 16 -1 19 -3 4 -6 -2 -5 -13z"/>
<path d="M2710 7120 c0 -7 3 -10 7 -7 3 4 3 10 0 14 -4 3 -7 0 -7 -7z"/>
<path d="M3812 7100 c0 -19 2 -27 5 -17 2 9 2 25 0 35 -3 9 -5 1 -5 -18z"/>
<path d="M2722 7040 c0 -14 2 -19 5 -12 2 6 2 18 0 25 -3 6 -5 1 -5 -13z"/>
<path d="M3821 6964 c0 -11 3 -14 6 -6 3 7 2 16 -1 19 -3 4 -6 -2 -5 -13z"/>
<path d="M2741 6884 c0 -11 3 -14 6 -6 3 7 2 16 -1 19 -3 4 -6 -2 -5 -13z"/>
<path d="M3832 6840 c0 -19 2 -27 5 -17 2 9 2 25 0 35 -3 9 -5 1 -5 -18z"/>
<path d="M2750 6810 c0 -7 3 -10 7 -7 3 4 3 10 0 14 -4 3 -7 0 -7 -7z"/>
<path d="M2760 6730 c0 -7 3 -10 7 -7 3 4 3 10 0 14 -4 3 -7 0 -7 -7z"/>
<path d="M3842 6685 c0 -16 2 -22 5 -12 2 9 2 23 0 30 -3 6 -5 -1 -5 -18z"/>
<path d="M2771 6654 c0 -11 3 -14 6 -6 3 7 2 16 -1 19 -3 4 -6 -2 -5 -13z"/>
<path d="M2781 6574 c0 -11 3 -14 6 -6 3 7 2 16 -1 19 -3 4 -6 -2 -5 -13z"/>
<path d="M3853 6515 c0 -22 2 -30 4 -17 2 12 2 30 0 40 -3 9 -5 -1 -4 -23z"/>
<path d="M2791 6494 c0 -11 3 -14 6 -6 3 7 2 16 -1 19 -3 4 -6 -2 -5 -13z"/>
<path d="M2812 6330 c0 -14 2 -19 5 -12 2 6 2 18 0 25 -3 6 -5 1 -5 -13z"/>
<path d="M3863 6300 c0 -30 2 -43 4 -27 2 15 2 39 0 55 -2 15 -4 2 -4 -28z"/>
<path d="M2820 6250 c0 -7 3 -10 7 -7 3 4 3 10 0 14 -4 3 -7 0 -7 -7z"/>
<path d="M2831 6154 c0 -11 3 -14 6 -6 3 7 2 16 -1 19 -3 4 -6 -2 -5 -13z"/>
<path d="M2842 6060 c0 -14 2 -19 5 -12 2 6 2 18 0 25 -3 6 -5 1 -5 -13z"/>
<path d="M2851 5954 c0 -11 3 -14 6 -6 3 7 2 16 -1 19 -3 4 -6 -2 -5 -13z"/>
<path d="M3873 5915 c0 -33 2 -45 4 -27 2 18 2 45 0 60 -2 15 -4 0 -4 -33z"/>
<path d="M2862 5840 c0 -19 2 -27 5 -17 2 9 2 25 0 35 -3 9 -5 1 -5 -18z"/>
<path d="M2871 5714 c0 -11 3 -14 6 -6 3 7 2 16 -1 19 -3 4 -6 -2 -5 -13z"/>
<path d="M2883 5535 c0 -27 2 -38 4 -22 2 15 2 37 0 50 -2 12 -4 0 -4 -28z"/>
<path d="M2743 5403 c4 -3 10 -3 14 0 3 4 0 7 -7 7 -7 0 -10 -3 -7 -7z"/>
<path d="M4013 5403 c4 -3 10 -3 14 0 3 4 0 7 -7 7 -7 0 -10 -3 -7 -7z"/>
<path d="M4055 5390 c3 -5 8 -10 11 -10 3 0 2 5 -1 10 -3 6 -8 10 -11 10 -3 0 -2 -4 1 -10z"/>
<path d="M2684 5368 l-19 -23 23 19 c21 18 27 26 19 26 -2 0 -12 -10 -23 -22z"/>
<path d="M2660 5299 c0 -44 31 -86 76 -105 49 -21 1259 -21 1308 0 44 18 76 61 76 102 l0 34 -730 2 -730 3 0 -36z"/>
<path d="M4033 5173 c4 -3 10 -3 14 0 3 4 0 7 -7 7 -7 0 -10 -3 -7 -7z"/>
<path d="M4065 5160 c3 -5 8 -10 11 -10 3 0 2 5 -1 10 -3 6 -8 10 -11 10 -3 0 -2 -4 1 -10z"/>
<path d="M4095 5130 c3 -5 8 -10 11 -10 3 0 2 5 -1 10 -3 6 -8 10 -11 10 -3 0 -2 -4 1 -10z"/>
<path d="M2667 5123 c-4 -3 -7 -26 -7 -50 0 -44 15 -67 71 -108 16 -12 1310 -14 1302 -2 -2 4 2 7 9 7 35 1 78 61 78 109 l0 31 -726 0 c-481 0 -723 3 -719 10 7 11 2 13 -8 3z"/>
<path d="M2684 4918 l-19 -23 23 19 c12 11 22 21 22 23 0 8 -8 2 -26 -19z"/>
<path d="M2660 4849 c0 -38 26 -81 61 -99 12 -7 248 -10 669 -10 645 0 652 0 681 20 36 26 49 50 49 89 l0 31 -730 2 -730 3 0 -36z"/>
<path d="M2715 4720 c-3 -6 1 -7 9 -4 18 7 21 14 7 14 -6 0 -13 -4 -16 -10z"/>
<path d="M4065 4710 c3 -5 8 -10 11 -10 3 0 2 5 -1 10 -3 6 -8 10 -11 10 -3 0 -2 -4 1 -10z"/>
<path d="M4095 4680 c3 -5 8 -10 11 -10 3 0 2 5 -1 10 -3 6 -8 10 -11 10 -3 0 -2 -4 1 -10z"/>
<path d="M2660 4624 c0 -45 27 -88 60 -99 11 -4 18 -9 16 -13 -2 -4 290 -7 649 -7 359 0 651 3 649 7 -2 4 5 9 15 13 34 10 71 63 71 101 l0 34 -730 2 -730 3 0 -41z"/>
<path d="M2660 4399 c0 -19 7 -44 15 -55 8 -10 15 -28 15 -39 0 -11 41 -135 90 -277 50 -141 90 -259 90 -262 0 -3 -215 -6 -477 -6 -537 0 -565 -3 -693 -67 -41 -21 -123 -72 -182 -114 l-107 -77 -68 34 c-37 18 -104 50 -148 70 -94 43 -178 123 -236 222 l-37 62 -33 -37 c-79 -91 -265 -401 -409 -683 l-63 -125 36 -258 37 -258 56 -112 c132 -262 255 -454 355 -556 38 -38 102 -86 163 -122 185 -109 745 -384 1066 -522 108 -46 130 -50 325 -62 44 -2 128 -7 187 -11 l106 -6 6 -34 c8 -40 39 -64 82 -64 45 0 72 26 94 90 10 30 84 237 165 460 81 223 198 547 260 720 62 173 120 333 129 355 8 22 90 247 181 500 91 253 179 496 195 540 73 200 199 552 205 574 4 12 18 39 31 58 13 20 24 49 24 64 l0 29 -730 2 -730 3 0 -36z m1224 -131 c-3 -13 -45 -126 -91 -253 -47 -126 -90 -245 -96 -264 l-11 -34 -126 6 c-194 9 -370 29 -340 39 14 4 -6 5 -45 2 -38 -3 -71 -7 -72 -8 -2 -1 110 -322 246 -706 40 -112 46 -140 38 -163 -12 -35 -18 -28 -45 48 -191 545 -279 795 -321 913 -127 355 -151 424 -151 433 0 5 206 9 511 9 l510 0 -7 -22z m-2740 -1658 c23 -81 20 -86 -25 -46 -54 50 -83 59 -154 51 l-60 -6 45 29 c68 44 80 63 143 227 10 27 12 19 24 -85 6 -63 19 -140 27 -170z m1261 -770 c279 -51 262 -45 165 -53 -194 -15 -248 -53 -291 -202 l-18 -60 0 122 -1 122 -42 34 c-24 18 -67 48 -95 66 -29 18 -53 34 -53 36 0 2 37 -6 83 -16 45 -10 159 -32 252 -49z m-148 -352 c-3 -8 -6 -5 -6 6 -1 11 2 17 5 13 3 -3 4 -12 1 -19z"/>
<path d="M3470 2505 c-6 -16 -27 -70 -45 -120 -18 -49 -79 -216 -135 -370 -218 -595 -319 -879 -314 -885 9 -8 744 -6 782 2 29 7 34 5 44 -20 21 -49 49 -72 87 -72 56 1 99 47 87 95 -4 17 -1 25 11 28 15 4 14 5 -3 6 -18 1 -30 28 -87 189 -224 639 -380 1084 -397 1127 l-18 50 -12 -30z"/>
<path d="M3010 1070 c0 -7 3 -10 7 -7 3 4 3 10 0 14 -4 3 -7 0 -7 -7z"/>
<path d="M3782 1025 c0 -16 2 -22 5 -12 2 9 2 23 0 30 -3 6 -5 -1 -5 -18z"/>
<path d="M3021 994 c0 -11 3 -14 6 -6 3 7 2 16 -1 19 -3 4 -6 -2 -5 -13z"/>
<path d="M3770 940 c0 -7 3 -10 7 -7 3 4 3 10 0 14 -4 3 -7 0 -7 -7z"/>
<path d="M3040 890 c0 -7 3 -10 7 -7 3 4 3 10 0 14 -4 3 -7 0 -7 -7z"/>
<path d="M3760 880 c0 -7 3 -10 7 -7 3 4 3 10 0 14 -4 3 -7 0 -7 -7z"/>
<path d="M3050 850 c0 -7 3 -10 7 -7 3 4 3 10 0 14 -4 3 -7 0 -7 -7z"/>
<path d="M3740 800 c0 -7 3 -10 7 -7 3 4 3 10 0 14 -4 3 -7 0 -7 -7z"/>
<path d="M3684 668 c-4 -7 -3 -8 4 -4 12 7 16 16 8 16 -3 0 -8 -5 -12 -12z"/>
<path d="M3664 638 c-4 -7 -3 -8 4 -4 7 4 12 9 12 12 0 8 -9 4 -16 -8z"/>
<path d="M3145 630 c3 -5 8 -10 11 -10 3 0 2 5 -1 10 -3 6 -8 10 -11 10 -3 0 -2 -4 1 -10z"/>
</g>
<g id="layer112" fill="#afafaf" stroke="none">
<path d="M3961 10664 c0 -11 3 -14 6 -6 3 7 2 16 -1 19 -3 4 -6 -2 -5 -13z"/>
<path d="M2552 10230 c0 -14 2 -19 5 -12 2 6 2 18 0 25 -3 6 -5 1 -5 -13z"/>
<path d="M3850 9660 c0 -7 3 -10 7 -7 3 4 3 10 0 14 -4 3 -7 0 -7 -7z"/>
<path d="M3812 7110 c0 -14 2 -19 5 -12 2 6 2 18 0 25 -3 6 -5 1 -5 -13z"/>
<path d="M2883 5530 c0 -25 2 -35 4 -22 2 12 2 32 0 45 -2 12 -4 2 -4 -23z"/>
<path d="M2543 4293 c9 -2 23 -2 30 0 6 3 -1 5 -18 5 -16 0 -22 -2 -12 -5z"/>
<path d="M4110 4287 c0 -13 -173 -497 -183 -514 -3 -5 2 -9 11 -9 9 0 35 -2 57 -3 l40 -3 -45 -9 c-25 -5 -53 -7 -62 -5 -10 2 -18 0 -18 -6 0 -6 -90 -259 -200 -563 -110 -304 -200 -559 -200 -568 0 -8 23 -80 51 -159 28 -78 55 -154 59 -168 4 -14 36 -104 70 -200 34 -96 99 -283 145 -415 127 -367 167 -479 175 -488 5 -5 52 -1 106 8 100 16 131 21 194 31 19 3 55 9 80 14 25 5 119 23 210 40 312 60 488 111 610 178 218 120 781 499 835 563 l20 24 -23 -19 c-21 -18 -35 -19 -265 -12 -133 3 -262 10 -286 15 -24 5 -73 5 -110 1 -36 -5 -149 -11 -251 -15 -169 -6 -283 -17 -335 -31 -11 -4 52 30 140 75 143 73 255 116 352 136 25 5 43 21 77 69 52 74 98 120 177 182 119 94 152 184 114 312 -18 58 -141 350 -156 368 -18 22 187 138 331 186 93 32 187 51 205 44 22 -8 -77 123 -156 208 -39 42 -101 98 -137 126 -164 123 -631 314 -1388 566 -160 53 -244 67 -244 41z m657 -2324 c-4 -3 -10 -3 -14 0 -3 4 0 7 7 7 7 0 10 -3 7 -7z"/>
<path d="M2458 4283 c6 -2 18 -2 25 0 6 3 1 5 -13 5 -14 0 -19 -2 -12 -5z"/>
<path d="M2378 4273 c6 -2 18 -2 25 0 6 3 1 5 -13 5 -14 0 -19 -2 -12 -5z"/>
<path d="M2313 4263 c4 -3 10 -3 14 0 3 4 0 7 -7 7 -7 0 -10 -3 -7 -7z"/>
<path d="M2248 4253 c7 -3 16 -2 19 1 4 3 -2 6 -13 5 -11 0 -14 -3 -6 -6z"/>
<path d="M2193 4243 c4 -3 10 -3 14 0 3 4 0 7 -7 7 -7 0 -10 -3 -7 -7z"/>
<path d="M2138 4233 c7 -3 16 -2 19 1 4 3 -2 6 -13 5 -11 0 -14 -3 -6 -6z"/>
<path d="M2078 4223 c7 -3 16 -2 19 1 4 3 -2 6 -13 5 -11 0 -14 -3 -6 -6z"/>
<path d="M2023 4213 c4 -3 10 -3 14 0 3 4 0 7 -7 7 -7 0 -10 -3 -7 -7z"/>
<path d="M1968 4203 c7 -3 16 -2 19 1 4 3 -2 6 -13 5 -11 0 -14 -3 -6 -6z"/>
<path d="M1923 4193 c4 -3 10 -3 14 0 3 4 0 7 -7 7 -7 0 -10 -3 -7 -7z"/>
<path d="M1873 4183 c4 -3 10 -3 14 0 3 4 0 7 -7 7 -7 0 -10 -3 -7 -7z"/>
<path d="M1783 4163 c4 -3 10 -3 14 0 3 4 0 7 -7 7 -7 0 -10 -3 -7 -7z"/>
<path d="M1693 4143 c4 -3 10 -3 14 0 3 4 0 7 -7 7 -7 0 -10 -3 -7 -7z"/>
<path d="M1648 4133 c7 -3 16 -2 19 1 4 3 -2 6 -13 5 -11 0 -14 -3 -6 -6z"/>
<path d="M1568 4113 c7 -3 16 -2 19 1 4 3 -2 6 -13 5 -11 0 -14 -3 -6 -6z"/>
<path d="M1493 4093 c4 -3 10 -3 14 0 3 4 0 7 -7 7 -7 0 -10 -3 -7 -7z"/>
<path d="M1453 4083 c4 -3 10 -3 14 0 3 4 0 7 -7 7 -7 0 -10 -3 -7 -7z"/>
<path d="M1413 4073 c4 -3 10 -3 14 0 3 4 0 7 -7 7 -7 0 -10 -3 -7 -7z"/>
<path d="M1313 4043 c4 -3 10 -3 14 0 3 4 0 7 -7 7 -7 0 -10 -3 -7 -7z"/>
<path d="M1213 4013 c4 -3 10 -3 14 0 3 4 0 7 -7 7 -7 0 -10 -3 -7 -7z"/>
<path d="M1103 3973 c4 -3 10 -3 14 0 3 4 0 7 -7 7 -7 0 -10 -3 -7 -7z"/>
<path d="M1053 3953 c4 -3 10 -3 14 0 3 4 0 7 -7 7 -7 0 -10 -3 -7 -7z"/>
<path d="M944 3898 c-4 -7 -3 -8 4 -4 7 4 12 9 12 12 0 8 -9 4 -16 -8z"/>
<path d="M889 3853 c-79 -91 -265 -401 -409 -683 l-63 -125 36 -258 37 -258 56 -112 c132 -262 255 -454 355 -556 38 -38 102 -86 163 -122 185 -109 745 -384 1066 -522 108 -46 129 -50 325 -62 44 -2 130 -7 190 -11 l110 -6 62 174 c34 95 125 349 203 563 78 215 168 466 202 558 l60 169 -180 511 c-99 282 -190 542 -203 580 l-24 67 -480 0 c-539 0 -567 -3 -695 -67 -41 -21 -123 -72 -182 -114 l-107 -77 -68 34 c-37 18 -104 50 -148 70 -94 43 -178 123 -236 222 l-37 62 -33 -37z m255 -1243 c23 -81 20 -86 -25 -46 -54 50 -83 59 -154 51 l-60 -6 45 29 c68 44 80 63 143 227 10 27 12 19 24 -85 6 -63 19 -140 27 -170z m1261 -770 c279 -51 262 -45 165 -53 -194 -15 -248 -53 -291 -202 l-18 -60 0 122 -1 122 -42 34 c-24 18 -67 48 -95 66 -29 18 -53 34 -53 36 0 2 37 -6 83 -16 45 -10 159 -32 252 -49z m-148 -352 c-3 -8 -6 -5 -6 6 -1 11 2 17 5 13 3 -3 4 -12 1 -19z"/>
<path d="M3618 3803 c12 -2 30 -2 40 0 9 3 -1 5 -23 4 -22 0 -30 -2 -17 -4z"/>
<path d="M3518 3793 c7 -3 16 -2 19 1 4 3 -2 6 -13 5 -11 0 -14 -3 -6 -6z"/>
<path d="M3398 3783 c12 -2 30 -2 40 0 9 3 -1 5 -23 4 -22 0 -30 -2 -17 -4z"/>
<path d="M3298 3773 c6 -2 18 -2 25 0 6 3 1 5 -13 5 -14 0 -19 -2 -12 -5z"/>
<path d="M3137 3763 c-31 -4 -37 -7 -32 -21 4 -9 49 -138 101 -287 53 -148 116 -330 142 -402 25 -73 49 -127 53 -120 4 6 41 107 82 222 42 116 104 289 140 386 l64 176 -126 6 c-189 9 -371 29 -341 38 22 6 20 7 -10 6 -19 0 -52 -2 -73 -4z"/>
<path d="M6055 3320 c3 -5 8 -10 11 -10 3 0 2 5 -1 10 -3 6 -8 10 -11 10 -3 0 -2 -4 1 -10z"/>
<path d="M6075 3290 c3 -5 8 -10 11 -10 3 0 2 5 -1 10 -3 6 -8 10 -11 10 -3 0 -2 -4 1 -10z"/>
<path d="M6095 3260 c3 -5 8 -10 11 -10 3 0 2 5 -1 10 -3 6 -8 10 -11 10 -3 0 -2 -4 1 -10z"/>
<path d="M6125 3210 c3 -5 8 -10 11 -10 3 0 2 5 -1 10 -3 6 -8 10 -11 10 -3 0 -2 -4 1 -10z"/>
<path d="M6240 3000 c0 -7 3 -10 7 -7 3 4 3 10 0 14 -4 3 -7 0 -7 -7z"/>
<path d="M6271 2864 c0 -11 3 -14 6 -6 3 7 2 16 -1 19 -3 4 -6 -2 -5 -13z"/>
<path d="M6262 2790 c0 -14 2 -19 5 -12 2 6 2 18 0 25 -3 6 -5 1 -5 -13z"/>
<path d="M6250 2730 c0 -7 3 -10 7 -7 3 4 3 10 0 14 -4 3 -7 0 -7 -7z"/>
<path d="M6241 2674 c0 -11 3 -14 6 -6 3 7 2 16 -1 19 -3 4 -6 -2 -5 -13z"/>
<path d="M6230 2620 c0 -7 3 -10 7 -7 3 4 3 10 0 14 -4 3 -7 0 -7 -7z"/>
<path d="M6221 2564 c0 -11 3 -14 6 -6 3 7 2 16 -1 19 -3 4 -6 -2 -5 -13z"/>
<path d="M6211 2514 c0 -11 3 -14 6 -6 3 7 2 16 -1 19 -3 4 -6 -2 -5 -13z"/>
<path d="M6200 2470 c0 -7 3 -10 7 -7 3 4 3 10 0 14 -4 3 -7 0 -7 -7z"/>
<path d="M6191 2424 c0 -11 3 -14 6 -6 3 7 2 16 -1 19 -3 4 -6 -2 -5 -13z"/>
<path d="M3286 2007 c-265 -730 -315 -872 -310 -877 7 -6 701 -7 772 0 41 4 51 8 46 20 -4 11 -238 673 -382 1083 -9 26 -19 47 -22 47 -3 0 -49 -123 -104 -273z"/>
<path d="M6150 2270 c0 -7 3 -10 7 -7 3 4 3 10 0 14 -4 3 -7 0 -7 -7z"/>
<path d="M5302 2134 c-2 -31 3 -45 21 -60 22 -19 22 -19 5 1 -9 11 -18 38 -21 60 l-4 40 -1 -41z"/>
<path d="M6080 2080 c0 -7 3 -10 7 -7 3 4 3 10 0 14 -4 3 -7 0 -7 -7z"/>
<path d="M6064 2048 c-4 -7 -3 -8 4 -4 12 7 16 16 8 16 -3 0 -8 -5 -12 -12z"/>
<path d="M5373 2043 c4 -3 10 -3 14 0 3 4 0 7 -7 7 -7 0 -10 -3 -7 -7z"/>
<path d="M5403 2033 c4 -3 10 -3 14 0 3 4 0 7 -7 7 -7 0 -10 -3 -7 -7z"/>
<path d="M3978 1163 c7 -3 16 -2 19 1 4 3 -2 6 -13 5 -11 0 -14 -3 -6 -6z"/>
</g>
<g id="layer113" fill="#d0d0d0" stroke="none">
<path d="M3083 11313 c4 -3 10 -3 14 0 3 4 0 7 -7 7 -7 0 -10 -3 -7 -7z"/>
<path d="M3173 11303 c4 -3 10 -3 14 0 3 4 0 7 -7 7 -7 0 -10 -3 -7 -7z"/>
<path d="M3283 11283 c4 -3 10 -3 14 0 3 4 0 7 -7 7 -7 0 -10 -3 -7 -7z"/>
<path d="M3403 11253 c4 -3 10 -3 14 0 3 4 0 7 -7 7 -7 0 -10 -3 -7 -7z"/>
<path d="M3775 11100 c3 -5 8 -10 11 -10 3 0 2 5 -1 10 -3 6 -8 10 -11 10 -3 0 -2 -4 1 -10z"/>
<path d="M2530 10750 c0 -7 3 -10 7 -7 3 4 3 10 0 14 -4 3 -7 0 -7 -7z"/>
<path d="M2532 10490 c0 -14 2 -19 5 -12 2 6 2 18 0 25 -3 6 -5 1 -5 -13z"/>
<path d="M2540 10380 c0 -7 3 -10 7 -7 3 4 3 10 0 14 -4 3 -7 0 -7 -7z"/>
<path d="M3951 10314 c0 -11 3 -14 6 -6 3 7 2 16 -1 19 -3 4 -6 -2 -5 -13z"/>
<path d="M2551 10224 c0 -11 3 -14 6 -6 3 7 2 16 -1 19 -3 4 -6 -2 -5 -13z"/>
<path d="M3930 10160 c0 -7 3 -10 7 -7 3 4 3 10 0 14 -4 3 -7 0 -7 -7z"/>
<path d="M3920 10100 c0 -7 3 -10 7 -7 3 4 3 10 0 14 -4 3 -7 0 -7 -7z"/>
<path d="M2562 10075 c0 -16 2 -22 5 -12 2 9 2 23 0 30 -3 6 -5 -1 -5 -18z"/>
<path d="M3900 9980 c0 -7 3 -10 7 -7 3 4 3 10 0 14 -4 3 -7 0 -7 -7z"/>
<path d="M2572 9880 c0 -14 2 -19 5 -12 2 6 2 18 0 25 -3 6 -5 1 -5 -13z"/>
<path d="M2583 9655 c0 -22 2 -30 4 -17 2 12 2 30 0 40 -3 9 -5 -1 -4 -23z"/>
<path d="M3840 9580 c0 -7 3 -10 7 -7 3 4 3 10 0 14 -4 3 -7 0 -7 -7z"/>
<path d="M3831 9494 c0 -11 3 -14 6 -6 3 7 2 16 -1 19 -3 4 -6 -2 -5 -13z"/>
<path d="M2592 9390 c0 -14 2 -19 5 -12 2 6 2 18 0 25 -3 6 -5 1 -5 -13z"/>
<path d="M3811 9314 c0 -11 3 -14 6 -6 3 7 2 16 -1 19 -3 4 -6 -2 -5 -13z"/>
<path d="M3790 9100 c0 -7 3 -10 7 -7 3 4 3 10 0 14 -4 3 -7 0 -7 -7z"/>
<path d="M2603 9010 c0 -36 2 -50 4 -32 2 17 2 47 0 65 -2 17 -4 3 -4 -33z"/>
<path d="M3782 8980 c0 -14 2 -19 5 -12 2 6 2 18 0 25 -3 6 -5 1 -5 -13z"/>
<path d="M3771 8814 c0 -11 3 -14 6 -6 3 7 2 16 -1 19 -3 4 -6 -2 -5 -13z"/>
<path d="M2612 8595 c0 -16 2 -22 5 -12 2 9 2 23 0 30 -3 6 -5 -1 -5 -18z"/>
<path d="M3763 8570 c0 -30 2 -43 4 -27 2 15 2 39 0 55 -2 15 -4 2 -4 -28z"/>
<path d="M2622 8105 c0 -16 2 -22 5 -12 2 9 2 23 0 30 -3 6 -5 -1 -5 -18z"/>
<path d="M3763 7940 c0 -30 2 -43 4 -27 2 15 2 39 0 55 -2 15 -4 2 -4 -28z"/>
<path d="M2632 7925 c0 -16 2 -22 5 -12 2 9 2 23 0 30 -3 6 -5 -1 -5 -18z"/>
<path d="M2640 7780 c0 -7 3 -10 7 -7 3 4 3 10 0 14 -4 3 -7 0 -7 -7z"/>
<path d="M3772 7700 c0 -14 2 -19 5 -12 2 6 2 18 0 25 -3 6 -5 1 -5 -13z"/>
<path d="M2652 7660 c0 -14 2 -19 5 -12 2 6 2 18 0 25 -3 6 -5 1 -5 -13z"/>
<path d="M2660 7560 c0 -7 3 -10 7 -7 3 4 3 10 0 14 -4 3 -7 0 -7 -7z"/>
<path d="M3782 7525 c0 -16 2 -22 5 -12 2 9 2 23 0 30 -3 6 -5 -1 -5 -18z"/>
<path d="M2671 7454 c0 -11 3 -14 6 -6 3 7 2 16 -1 19 -3 4 -6 -2 -5 -13z"/>
<path d="M3791 7384 c0 -11 3 -14 6 -6 3 7 2 16 -1 19 -3 4 -6 -2 -5 -13z"/>
<path d="M2690 7280 c0 -7 3 -10 7 -7 3 4 3 10 0 14 -4 3 -7 0 -7 -7z"/>
<path d="M2700 7200 c0 -7 3 -10 7 -7 3 4 3 10 0 14 -4 3 -7 0 -7 -7z"/>
<path d="M3811 7114 c0 -11 3 -14 6 -6 3 7 2 16 -1 19 -3 4 -6 -2 -5 -13z"/>
<path d="M2721 7034 c0 -11 3 -14 6 -6 3 7 2 16 -1 19 -3 4 -6 -2 -5 -13z"/>
<path d="M2740 6880 c0 -7 3 -10 7 -7 3 4 3 10 0 14 -4 3 -7 0 -7 -7z"/>
<path d="M3832 6845 c0 -16 2 -22 5 -12 2 9 2 23 0 30 -3 6 -5 -1 -5 -18z"/>
<path d="M3841 6694 c0 -11 3 -14 6 -6 3 7 2 16 -1 19 -3 4 -6 -2 -5 -13z"/>
<path d="M2770 6650 c0 -7 3 -10 7 -7 3 4 3 10 0 14 -4 3 -7 0 -7 -7z"/>
<path d="M2780 6570 c0 -7 3 -10 7 -7 3 4 3 10 0 14 -4 3 -7 0 -7 -7z"/>
<path d="M3852 6525 c0 -16 2 -22 5 -12 2 9 2 23 0 30 -3 6 -5 -1 -5 -18z"/>
<path d="M2790 6490 c0 -7 3 -10 7 -7 3 4 3 10 0 14 -4 3 -7 0 -7 -7z"/>
<path d="M3862 6325 c0 -16 2 -22 5 -12 2 9 2 23 0 30 -3 6 -5 -1 -5 -18z"/>
<path d="M2811 6324 c0 -11 3 -14 6 -6 3 7 2 16 -1 19 -3 4 -6 -2 -5 -13z"/>
<path d="M2830 6150 c0 -7 3 -10 7 -7 3 4 3 10 0 14 -4 3 -7 0 -7 -7z"/>
<path d="M2841 6054 c0 -11 3 -14 6 -6 3 7 2 16 -1 19 -3 4 -6 -2 -5 -13z"/>
<path d="M3872 5945 c0 -16 2 -22 5 -12 2 9 2 23 0 30 -3 6 -5 -1 -5 -18z"/>
<path d="M2850 5950 c0 -7 3 -10 7 -7 3 4 3 10 0 14 -4 3 -7 0 -7 -7z"/>
<path d="M2862 5830 c0 -14 2 -19 5 -12 2 6 2 18 0 25 -3 6 -5 1 -5 -13z"/>
<path d="M2882 5510 c0 -14 2 -19 5 -12 2 6 2 18 0 25 -3 6 -5 1 -5 -13z"/>
<path d="M4110 5270 c0 -7 3 -10 7 -7 3 4 3 10 0 14 -4 3 -7 0 -7 -7z"/>
<path d="M4094 5238 c-4 -7 -3 -8 4 -4 12 7 16 16 8 16 -3 0 -8 -5 -12 -12z"/>
<path d="M4064 5208 c-4 -7 -3 -8 4 -4 12 7 16 16 8 16 -3 0 -8 -5 -12 -12z"/>
<path d="M4110 5100 c0 -7 3 -10 7 -7 3 4 3 10 0 14 -4 3 -7 0 -7 -7z"/>
<path d="M2685 5000 c10 -11 20 -20 23 -20 3 0 -3 9 -13 20 -10 11 -20 20 -23 20 -3 0 3 -9 13 -20z"/>
<path d="M2740 4960 c0 -7 3 -10 7 -7 3 4 3 10 0 14 -4 3 -7 0 -7 -7z"/>
<path d="M4110 4820 c0 -7 3 -10 7 -7 3 4 3 10 0 14 -4 3 -7 0 -7 -7z"/>
<path d="M4094 4788 c-4 -7 -3 -8 4 -4 7 4 12 9 12 12 0 8 -9 4 -16 -8z"/>
<path d="M4033 4743 c4 -3 10 -3 14 0 3 4 0 7 -7 7 -7 0 -10 -3 -7 -7z"/>
<path d="M4110 4650 c0 -7 3 -10 7 -7 3 4 3 10 0 14 -4 3 -7 0 -7 -7z"/>
<path d="M2685 4550 c10 -11 20 -20 23 -20 3 0 -3 9 -13 20 -10 11 -20 20 -23 20 -3 0 3 -9 13 -20z"/>
<path d="M4010 4516 c0 -2 7 -7 16 -10 8 -3 12 -2 9 4 -6 10 -25 14 -25 6z"/>
<path d="M4070 4486 c0 -2 8 -10 18 -17 15 -13 16 -12 3 4 -13 16 -21 21 -21 13z"/>
<path d="M4079 4323 c-13 -16 -12 -17 4 -4 16 13 21 21 13 21 -2 0 -10 -8 -17 -17z"/>
<path d="M2538 4293 c6 -2 18 -2 25 0 6 3 1 5 -13 5 -14 0 -19 -2 -12 -5z"/>
<path d="M4193 4293 c4 -3 10 -3 14 0 3 4 0 7 -7 7 -7 0 -10 -3 -7 -7z"/>
<path d="M2453 4283 c4 -3 10 -3 14 0 3 4 0 7 -7 7 -7 0 -10 -3 -7 -7z"/>
<path d="M2378 4273 c7 -3 16 -2 19 1 4 3 -2 6 -13 5 -11 0 -14 -3 -6 -6z"/>
<path d="M4253 4273 c4 -3 10 -3 14 0 3 4 0 7 -7 7 -7 0 -10 -3 -7 -7z"/>
<path d="M2243 4253 c4 -3 10 -3 14 0 3 4 0 7 -7 7 -7 0 -10 -3 -7 -7z"/>
<path d="M2073 4223 c4 -3 10 -3 14 0 3 4 0 7 -7 7 -7 0 -10 -3 -7 -7z"/>
<path d="M1963 4203 c4 -3 10 -3 14 0 3 4 0 7 -7 7 -7 0 -10 -3 -7 -7z"/>
<path d="M4523 4183 c4 -3 10 -3 14 0 3 4 0 7 -7 7 -7 0 -10 -3 -7 -7z"/>
<path d="M1733 4153 c4 -3 10 -3 14 0 3 4 0 7 -7 7 -7 0 -10 -3 -7 -7z"/>
<path d="M1643 4133 c4 -3 10 -3 14 0 3 4 0 7 -7 7 -7 0 -10 -3 -7 -7z"/>
<path d="M1563 4113 c4 -3 10 -3 14 0 3 4 0 7 -7 7 -7 0 -10 -3 -7 -7z"/>
<path d="M4783 4093 c4 -3 10 -3 14 0 3 4 0 7 -7 7 -7 0 -10 -3 -7 -7z"/>
<path d="M5003 4013 c4 -3 10 -3 14 0 3 4 0 7 -7 7 -7 0 -10 -3 -7 -7z"/>
<path d="M914 3878 c-4 -7 -3 -8 4 -4 12 7 16 16 8 16 -3 0 -8 -5 -12 -12z"/>
<path d="M879 3843 c-13 -16 -12 -17 4 -4 9 7 17 15 17 17 0 8 -8 3 -21 -13z"/>
<path d="M844 3798 c-4 -7 -3 -8 4 -4 7 4 12 9 12 12 0 8 -9 4 -16 -8z"/>
<path d="M3648 3803 c7 -3 16 -2 19 1 4 3 -2 6 -13 5 -11 0 -14 -3 -6 -6z"/>
<path d="M3523 3793 c4 -3 10 -3 14 0 3 4 0 7 -7 7 -7 0 -10 -3 -7 -7z"/>
<path d="M3418 3783 c6 -2 18 -2 25 0 6 3 1 5 -13 5 -14 0 -19 -2 -12 -5z"/>
<path d="M3308 3773 c7 -3 16 -2 19 1 4 3 -2 6 -13 5 -11 0 -14 -3 -6 -6z"/>
<path d="M3149 3761 l-46 -6 145 -413 c80 -227 149 -409 153 -405 4 5 52 134 108 288 55 154 118 328 139 386 l39 106 -126 6 c-189 9 -371 29 -341 38 l25 7 -25 -1 c-14 0 -46 -3 -71 -6z"/>
<path d="M3968 3763 c7 -3 16 -2 19 1 4 3 -2 6 -13 5 -11 0 -14 -3 -6 -6z"/>
<path d="M1885 3750 c-113 -15 -239 -78 -406 -202 -68 -51 -83 -68 -137 -160 -76 -130 -129 -237 -182 -364 -22 -54 -44 -106 -49 -114 -9 -20 14 -230 33 -300 23 -81 20 -86 -25 -46 -22 20 -52 41 -66 47 -35 13 -139 5 -186 -14 -153 -65 -231 -91 -289 -101 l-66 -10 45 -91 c120 -239 247 -436 343 -533 34 -34 98 -84 143 -111 145 -86 296 -163 308 -155 7 4 9 3 6 -3 -7 -12 607 -312 663 -325 8 -2 17 -6 20 -9 3 -3 48 -24 100 -46 97 -42 122 -46 315 -58 44 -2 130 -7 190 -10 l110 -7 129 359 c71 197 189 526 263 731 l135 373 -145 412 c-80 227 -171 487 -203 580 l-59 167 -465 -1 c-256 -1 -492 -5 -525 -9z m520 -1910 c279 -51 262 -45 165 -53 -194 -15 -248 -53 -291 -202 l-18 -60 0 122 -1 122 -42 34 c-24 18 -67 48 -95 66 -29 18 -53 34 -53 36 0 2 37 -6 83 -16 45 -10 159 -32 252 -49z m-148 -352 c-3 -8 -6 -5 -6 6 -1 11 2 17 5 13 3 -3 4 -12 1 -19z"/>
<path d="M3975 3747 l-60 -9 -112 -312 c-62 -171 -153 -423 -203 -561 -81 -222 -90 -254 -81 -285 5 -19 64 -190 131 -380 67 -190 143 -408 170 -485 96 -279 187 -536 193 -541 3 -3 50 2 104 11 99 16 130 21 193 31 19 3 55 9 80 14 25 5 119 23 210 40 312 60 488 111 610 178 223 123 775 495 763 515 -3 6 -1 7 4 4 6 -4 21 2 34 12 23 18 19 19 -242 24 -145 3 -277 9 -294 14 -17 6 -58 7 -95 3 -36 -5 -148 -11 -250 -15 -169 -6 -284 -17 -335 -31 -11 -4 52 30 140 75 141 72 252 115 350 136 23 5 43 25 85 82 31 42 92 107 139 147 104 88 137 128 153 188 20 77 1 141 -117 411 -27 61 -61 122 -79 139 -38 39 -148 90 -326 153 -290 102 -377 141 -565 255 -200 121 -285 158 -410 179 -98 16 -127 18 -190 8z m792 -1784 c-4 -3 -10 -3 -14 0 -3 4 0 7 7 7 7 0 10 -3 7 -7z"/>
<path d="M5735 3680 c3 -5 8 -10 11 -10 3 0 2 5 -1 10 -3 6 -8 10 -11 10 -3 0 -2 -4 1 -10z"/>
<path d="M5795 3630 c10 -11 20 -20 23 -20 3 0 -3 9 -13 20 -10 11 -20 20 -23 20 -3 0 3 -9 13 -20z"/>
<path d="M5890 3535 c13 -14 26 -25 28 -25 3 0 -5 11 -18 25 -13 14 -26 25 -28 25 -3 0 5 -11 18 -25z"/>
<path d="M5940 3476 c0 -2 8 -10 18 -17 15 -13 16 -12 3 4 -13 16 -21 21 -21 13z"/>
<path d="M5985 3420 c3 -5 8 -10 11 -10 3 0 2 5 -1 10 -3 6 -8 10 -11 10 -3 0 -2 -4 1 -10z"/>
<path d="M6035 3350 c3 -5 8 -10 11 -10 3 0 2 5 -1 10 -3 6 -8 10 -11 10 -3 0 -2 -4 1 -10z"/>
<path d="M420 3000 c0 -7 3 -10 7 -7 3 4 3 10 0 14 -4 3 -7 0 -7 -7z"/>
<path d="M431 2924 c0 -11 3 -14 6 -6 3 7 2 16 -1 19 -3 4 -6 -2 -5 -13z"/>
<path d="M440 2860 c0 -7 3 -10 7 -7 3 4 3 10 0 14 -4 3 -7 0 -7 -7z"/>
<path d="M1080 2850 c0 -7 3 -10 7 -7 3 4 3 10 0 14 -4 3 -7 0 -7 -7z"/>
<path d="M451 2784 c0 -11 3 -14 6 -6 3 7 2 16 -1 19 -3 4 -6 -2 -5 -13z"/>
<path d="M6261 2784 c0 -11 3 -14 6 -6 3 7 2 16 -1 19 -3 4 -6 -2 -5 -13z"/>
<path d="M460 2720 c0 -7 3 -10 7 -7 3 4 3 10 0 14 -4 3 -7 0 -7 -7z"/>
<path d="M979 2663 c-13 -16 -12 -17 4 -4 9 7 17 15 17 17 0 8 -8 3 -21 -13z"/>
<path d="M6240 2670 c0 -7 3 -10 7 -7 3 4 3 10 0 14 -4 3 -7 0 -7 -7z"/>
<path d="M471 2644 c0 -11 3 -14 6 -6 3 7 2 16 -1 19 -3 4 -6 -2 -5 -13z"/>
<path d="M944 2638 c-4 -7 -3 -8 4 -4 12 7 16 16 8 16 -3 0 -8 -5 -12 -12z"/>
<path d="M480 2580 c0 -7 3 -10 7 -7 3 4 3 10 0 14 -4 3 -7 0 -7 -7z"/>
<path d="M6220 2560 c0 -7 3 -10 7 -7 3 4 3 10 0 14 -4 3 -7 0 -7 -7z"/>
<path d="M6210 2510 c0 -7 3 -10 7 -7 3 4 3 10 0 14 -4 3 -7 0 -7 -7z"/>
<path d="M6190 2420 c0 -7 3 -10 7 -7 3 4 3 10 0 14 -4 3 -7 0 -7 -7z"/>
<path d="M6170 2340 c0 -7 3 -10 7 -7 3 4 3 10 0 14 -4 3 -7 0 -7 -7z"/>
<path d="M3380 2255 c-14 -37 -146 -397 -295 -810 l-113 -310 102 -8 c83 -7 646 -3 709 5 11 2 15 8 11 18 -3 8 -87 245 -185 525 -99 281 -188 533 -199 560 l-18 50 -12 -30z"/>
<path d="M3983 1163 c4 -3 10 -3 14 0 3 4 0 7 -7 7 -7 0 -10 -3 -7 -7z"/>
<path d="M3782 1020 c0 -14 2 -19 5 -12 2 6 2 18 0 25 -3 6 -5 1 -5 -13z"/>
<path d="M3020 990 c0 -7 3 -10 7 -7 3 4 3 10 0 14 -4 3 -7 0 -7 -7z"/>
</g>
<g id="layer114" fill="#efe5d9" stroke="none">
<path d="M2724 11198 l-19 -23 23 19 c12 11 22 21 22 23 0 8 -8 2 -26 -19z"/>
<path d="M3960 10670 c0 -7 3 -10 7 -7 3 4 3 10 0 14 -4 3 -7 0 -7 -7z"/>
<path d="M2531 10484 c0 -11 3 -14 6 -6 3 7 2 16 -1 19 -3 4 -6 -2 -5 -13z"/>
<path d="M3960 10430 c0 -7 3 -10 7 -7 3 4 3 10 0 14 -4 3 -7 0 -7 -7z"/>
<path d="M2550 10220 c0 -7 3 -10 7 -7 3 4 3 10 0 14 -4 3 -7 0 -7 -7z"/>
<path d="M2561 10064 c0 -11 3 -14 6 -6 3 7 2 16 -1 19 -3 4 -6 -2 -5 -13z"/>
<path d="M2570 9870 c0 -7 3 -10 7 -7 3 4 3 10 0 14 -4 3 -7 0 -7 -7z"/>
<path d="M2582 9645 c0 -16 2 -22 5 -12 2 9 2 23 0 30 -3 6 -5 -1 -5 -18z"/>
<path d="M3830 9490 c0 -7 3 -10 7 -7 3 4 3 10 0 14 -4 3 -7 0 -7 -7z"/>
<path d="M2591 9384 c0 -11 3 -14 6 -6 3 7 2 16 -1 19 -3 4 -6 -2 -5 -13z"/>
<path d="M3810 9310 c0 -7 3 -10 7 -7 3 4 3 10 0 14 -4 3 -7 0 -7 -7z"/>
<path d="M2603 8990 c0 -25 2 -35 4 -22 2 12 2 32 0 45 -2 12 -4 2 -4 -23z"/>
<path d="M3781 8974 c0 -11 3 -14 6 -6 3 7 2 16 -1 19 -3 4 -6 -2 -5 -13z"/>
<path d="M2612 8590 c0 -14 2 -19 5 -12 2 6 2 18 0 25 -3 6 -5 1 -5 -13z"/>
<path d="M3763 8555 c0 -22 2 -30 4 -17 2 12 2 30 0 40 -3 9 -5 -1 -4 -23z"/>
<path d="M2620 8090 c0 -7 3 -10 7 -7 3 4 3 10 0 14 -4 3 -7 0 -7 -7z"/>
<path d="M3763 7955 c0 -22 2 -30 4 -17 2 12 2 30 0 40 -3 9 -5 -1 -4 -23z"/>
<path d="M2631 7914 c0 -11 3 -14 6 -6 3 7 2 16 -1 19 -3 4 -6 -2 -5 -13z"/>
<path d="M3770 7710 c0 -7 3 -10 7 -7 3 4 3 10 0 14 -4 3 -7 0 -7 -7z"/>
<path d="M2651 7654 c0 -11 3 -14 6 -6 3 7 2 16 -1 19 -3 4 -6 -2 -5 -13z"/>
<path d="M3781 7534 c0 -11 3 -14 6 -6 3 7 2 16 -1 19 -3 4 -6 -2 -5 -13z"/>
<path d="M2670 7450 c0 -7 3 -10 7 -7 3 4 3 10 0 14 -4 3 -7 0 -7 -7z"/>
<path d="M3790 7390 c0 -7 3 -10 7 -7 3 4 3 10 0 14 -4 3 -7 0 -7 -7z"/>
<path d="M3810 7120 c0 -7 3 -10 7 -7 3 4 3 10 0 14 -4 3 -7 0 -7 -7z"/>
<path d="M2720 7030 c0 -7 3 -10 7 -7 3 4 3 10 0 14 -4 3 -7 0 -7 -7z"/>
<path d="M3831 6854 c0 -11 3 -14 6 -6 3 7 2 16 -1 19 -3 4 -6 -2 -5 -13z"/>
<path d="M3840 6700 c0 -7 3 -10 7 -7 3 4 3 10 0 14 -4 3 -7 0 -7 -7z"/>
<path d="M3852 6530 c0 -14 2 -19 5 -12 2 6 2 18 0 25 -3 6 -5 1 -5 -13z"/>
<path d="M3861 6334 c0 -11 3 -14 6 -6 3 7 2 16 -1 19 -3 4 -6 -2 -5 -13z"/>
<path d="M2810 6320 c0 -7 3 -10 7 -7 3 4 3 10 0 14 -4 3 -7 0 -7 -7z"/>
<path d="M2840 6050 c0 -7 3 -10 7 -7 3 4 3 10 0 14 -4 3 -7 0 -7 -7z"/>
<path d="M3871 5934 c0 -11 3 -14 6 -6 3 7 2 16 -1 19 -3 4 -6 -2 -5 -13z"/>
<path d="M2861 5824 c0 -11 3 -14 6 -6 3 7 2 16 -1 19 -3 4 -6 -2 -5 -13z"/>
<path d="M2880 5500 c0 -7 3 -10 7 -7 3 4 3 10 0 14 -4 3 -7 0 -7 -7z"/>
<path d="M4085 5370 c3 -5 8 -10 11 -10 3 0 2 5 -1 10 -3 6 -8 10 -11 10 -3 0 -2 -4 1 -10z"/>
<path d="M4025 4960 c3 -5 8 -10 11 -10 3 0 2 5 -1 10 -3 6 -8 10 -11 10 -3 0 -2 -4 1 -10z"/>
<path d="M4070 4936 c0 -2 8 -10 18 -17 15 -13 16 -12 3 4 -13 16 -21 21 -21 13z"/>
<path d="M2684 4698 c-4 -7 -3 -8 4 -4 7 4 12 9 12 12 0 8 -9 4 -16 -8z"/>
<path d="M2695 4540 c3 -5 8 -10 11 -10 3 0 2 5 -1 10 -3 6 -8 10 -11 10 -3 0 -2 -4 1 -10z"/>
<path d="M2735 4510 c-3 -6 1 -7 9 -4 18 7 21 14 7 14 -6 0 -13 -4 -16 -10z"/>
<path d="M4025 4510 c3 -5 8 -10 11 -10 3 0 2 5 -1 10 -3 6 -8 10 -11 10 -3 0 -2 -4 1 -10z"/>
<path d="M2533 4293 c4 -3 10 -3 14 0 3 4 0 7 -7 7 -7 0 -10 -3 -7 -7z"/>
<path d="M874 3838 c-4 -7 -3 -8 4 -4 7 4 12 9 12 12 0 8 -9 4 -16 -8z"/>
<path d="M3433 3783 c4 -3 10 -3 14 0 3 4 0 7 -7 7 -7 0 -10 -3 -7 -7z"/>
<path d="M3218 3763 c7 -3 16 -2 19 1 4 3 -2 6 -13 5 -11 0 -14 -3 -6 -6z"/>
<path d="M3963 3763 c4 -3 10 -3 14 0 3 4 0 7 -7 7 -7 0 -10 -3 -7 -7z"/>
<path d="M3183 3753 c4 -3 10 -3 14 0 3 4 0 7 -7 7 -7 0 -10 -3 -7 -7z"/>
<path d="M3263 3743 c4 -3 10 -3 14 0 3 4 0 7 -7 7 -7 0 -10 -3 -7 -7z"/>
<path d="M3973 3743 c4 -3 10 -3 14 0 3 4 0 7 -7 7 -7 0 -10 -3 -7 -7z"/>
<path d="M3348 3733 c6 -2 18 -2 25 0 6 3 1 5 -13 5 -14 0 -19 -2 -12 -5z"/>
<path d="M3488 3723 c7 -3 16 -2 19 1 4 3 -2 6 -13 5 -11 0 -14 -3 -6 -6z"/>
<path d="M5905 3520 c3 -5 8 -10 11 -10 3 0 2 5 -1 10 -3 6 -8 10 -11 10 -3 0 -2 -4 1 -10z"/>
<path d="M430 2920 c0 -7 3 -10 7 -7 3 4 3 10 0 14 -4 3 -7 0 -7 -7z"/>
<path d="M1113 2845 c0 -38 2 -53 4 -32 2 20 2 52 0 70 -2 17 -4 1 -4 -38z"/>
<path d="M6260 2780 c0 -7 3 -10 7 -7 3 4 3 10 0 14 -4 3 -7 0 -7 -7z"/>
<path d="M1120 2700 c0 -7 3 -10 7 -7 3 4 3 10 0 14 -4 3 -7 0 -7 -7z"/>
<path d="M1130 2660 c0 -7 3 -10 7 -7 3 4 3 10 0 14 -4 3 -7 0 -7 -7z"/>
<path d="M925 2610 c-22 -4 -91 -29 -152 -54 -62 -26 -143 -53 -179 -61 -36 -7 -68 -16 -71 -18 -5 -6 59 -135 130 -262 101 -180 245 -375 277 -375 16 0 328 220 411 290 l50 42 -34 37 c-37 41 -187 298 -187 321 0 7 -3 10 -6 7 -4 -4 -25 9 -46 29 -60 54 -96 62 -193 44z"/>
<path d="M5193 2163 c4 -3 10 -3 14 0 3 4 0 7 -7 7 -7 0 -10 -3 -7 -7z"/>
<path d="M5343 2013 c4 -3 10 -3 14 0 3 4 0 7 -7 7 -7 0 -10 -3 -7 -7z"/>
<path d="M5148 2003 c6 -2 18 -2 25 0 6 3 1 5 -13 5 -14 0 -19 -2 -12 -5z"/>
<path d="M4923 1993 c4 -3 10 -3 14 0 3 4 0 7 -7 7 -7 0 -10 -3 -7 -7z"/>
<path d="M4853 1983 c4 -3 10 -3 14 0 3 4 0 7 -7 7 -7 0 -10 -3 -7 -7z"/>
<path d="M4803 1973 c4 -3 10 -3 14 0 3 4 0 7 -7 7 -7 0 -10 -3 -7 -7z"/>
<path d="M2055 1910 c3 -5 8 -10 11 -10 3 0 2 5 -1 10 -3 6 -8 10 -11 10 -3 0 -2 -4 1 -10z"/>
<path d="M2263 1863 c4 -3 10 -3 14 0 3 4 0 7 -7 7 -7 0 -10 -3 -7 -7z"/>
<path d="M4325 1854 c-93 -26 -230 -46 -374 -54 -78 -5 -145 -11 -148 -14 -3 -3 15 -63 40 -133 25 -70 73 -207 107 -303 34 -96 63 -176 65 -178 2 -2 48 4 102 13 120 20 127 21 183 29 25 4 65 11 90 16 25 5 97 18 160 30 63 12 121 24 128 26 18 5 -277 586 -296 583 -4 -1 -29 -8 -57 -15z"/>
<path d="M2373 1843 c4 -3 10 -3 14 0 3 4 0 7 -7 7 -7 0 -10 -3 -7 -7z"/>
<path d="M2423 1833 c4 -3 10 -3 14 0 3 4 0 7 -7 7 -7 0 -10 -3 -7 -7z"/>
<path d="M2483 1823 c4 -3 10 -3 14 0 3 4 0 7 -7 7 -7 0 -10 -3 -7 -7z"/>
<path d="M2543 1813 c4 -3 10 -3 14 0 3 4 0 7 -7 7 -7 0 -10 -3 -7 -7z"/>
<path d="M2603 1803 c4 -3 10 -3 14 0 3 4 0 7 -7 7 -7 0 -10 -3 -7 -7z"/>
<path d="M2570 1789 c-109 -12 -181 -33 -218 -64 -31 -26 -66 -97 -77 -157 -4 -21 -11 -36 -15 -33 -5 3 -8 -9 -8 -27 0 -18 -5 -76 -12 -128 -7 -52 -14 -120 -14 -150 l-1 -55 55 -7 c65 -8 329 -23 414 -23 l60 0 116 320 c64 176 115 323 113 328 -6 10 -306 7 -413 -4z"/>
<path d="M3211 1782 c-6 -12 -51 -133 -100 -269 -49 -137 -100 -278 -114 -314 l-25 -67 176 -7 c142 -6 493 -1 623 8 l26 2 -32 90 c-18 50 -70 197 -115 328 l-83 237 -112 0 c-62 0 -139 3 -172 6 -55 6 -62 5 -72 -14z"/>
<path d="M3972 1120 c0 -14 2 -19 5 -12 2 6 2 18 0 25 -3 6 -5 1 -5 -13z"/>
<path d="M2760 1076 c0 -2 8 -10 18 -17 15 -13 16 -12 3 4 -13 16 -21 21 -21 13z"/>
<path d="M3781 1014 c0 -11 3 -14 6 -6 3 7 2 16 -1 19 -3 4 -6 -2 -5 -13z"/>
<path d="M3624 588 c-4 -7 -3 -8 4 -4 7 4 12 9 12 12 0 8 -9 4 -16 -8z"/>
<path d="M3180 586 c0 -2 8 -10 18 -17 15 -13 16 -12 3 4 -13 16 -21 21 -21 13z"/>
</g>


</svg>